  0
SECTION
  2
HEADER
  9
$ACADVER
  1
AC1009
  9
$DWGCODEPAGE
  3
ansi_1252
  9
$INSBASE
 10
0.0
 20
0.0
 30
0.0
  9
$EXTMIN
 10
133.0122296094459
 20
106.5452623069936
 30
0.0
  9
$EXTMAX
 10
418.7622296094459
 20
201.7952623069936
 30
0.0
  9
$LIMMIN
 10
0.0
 20
0.0
  9
$LIMMAX
 10
420.0
 20
297.0
  9
$ORTHOMODE
 70
     0
  9
$REGENMODE
 70
     1
  9
$FILLMODE
 70
     1
  9
$QTEXTMODE
 70
     0
  9
$MIRRTEXT
 70
     1
  9
$DRAGMODE
 70
     2
  9
$LTSCALE
 40
12.7
  9
$OSMODE
 70
    23
  9
$ATTMODE
 70
     1
  9
$TEXTSIZE
 40
3.5
  9
$TRACEWID
 40
1.0
  9
$TEXTSTYLE
  7
ONSHAPE-STANDARD
  9
$CLAYER
  8
0
  9
$CELTYPE
  6
BYLAYER
  9
$CECOLOR
 62
   256
  9
$DIMSCALE
 40
1.0
  9
$DIMASZ
 40
2.5
  9
$DIMEXO
 40
0.625
  9
$DIMDLI
 40
3.75
  9
$DIMRND
 40
0.0
  9
$DIMDLE
 40
0.0
  9
$DIMEXE
 40
1.25
  9
$DIMTP
 40
0.0
  9
$DIMTM
 40
0.0
  9
$DIMTXT
 40
3.5
  9
$DIMCEN
 40
2.5
  9
$DIMTSZ
 40
0.0
  9
$DIMTOL
 70
     0
  9
$DIMLIM
 70
     0
  9
$DIMTIH
 70
     0
  9
$DIMTOH
 70
     0
  9
$DIMSE1
 70
     0
  9
$DIMSE2
 70
     0
  9
$DIMTAD
 70
     1
  9
$DIMZIN
 70
     8
  9
$DIMBLK
  1

  9
$DIMASO
 70
     1
  9
$DIMSHO
 70
     1
  9
$DIMPOST
  1

  9
$DIMAPOST
  1

  9
$DIMALT
 70
     0
  9
$DIMALTD
 70
     3
  9
$DIMALTF
 40
0.03937
  9
$DIMLFAC
 40
1.0
  9
$DIMTOFL
 70
     1
  9
$DIMTVP
 40
0.0
  9
$DIMTIX
 70
     0
  9
$DIMSOXD
 70
     0
  9
$DIMSAH
 70
     0
  9
$DIMBLK1
  1

  9
$DIMBLK2
  1

  9
$DIMSTYLE
  2
ONSHAPE-ISO-25
  9
$DIMCLRD
 70
     7
  9
$DIMCLRE
 70
     7
  9
$DIMCLRT
 70
     7
  9
$DIMTFAC
 40
1.0
  9
$DIMGAP
 40
0.625
  9
$LUNITS
 70
     2
  9
$LUPREC
 70
     4
  9
$SKETCHINC
 40
1.0
  9
$FILLETRAD
 40
10.0
  9
$AUNITS
 70
     0
  9
$AUPREC
 70
     0
  9
$MENU
  1
.
  9
$ELEVATION
 40
0.0
  9
$PELEVATION
 40
0.0
  9
$THICKNESS
 40
0.0
  9
$LIMCHECK
 70
     0
  9
$CHAMFERA
 40
0.0
  9
$CHAMFERB
 40
0.0
  9
$SKPOLY
 70
     0
  9
$TDCREATE
 40
2459259.499049062
  9
$TDUPDATE
 40
2459259.499049734
  9
$TDINDWG
 40
0.0
  9
$TDUSRTIMER
 40
0.0
  9
$USRTIMER
 70
     1
  9
$ANGBASE
 50
0.0
  9
$ANGDIR
 70
     0
  9
$PDMODE
 70
    33
  9
$PDSIZE
 40
1.0
  9
$PLINEWID
 40
0.0
  9
$COORDS
 70
     1
  9
$SPLFRAME
 70
     0
  9
$SPLINETYPE
 70
     6
  9
$SPLINESEGS
 70
     8
  9
$ATTDIA
 70
     0
  9
$ATTREQ
 70
     1
  9
$HANDLING
 70
     1
  9
$HANDSEED
  5
2DE
  9
$SURFTAB1
 70
     6
  9
$SURFTAB2
 70
     6
  9
$SURFTYPE
 70
     6
  9
$SURFU
 70
     6
  9
$SURFV
 70
     6
  9
$UCSNAME
  2

  9
$UCSORG
 10
0.0
 20
0.0
 30
0.0
  9
$UCSXDIR
 10
1.0
 20
0.0
 30
0.0
  9
$UCSYDIR
 10
0.0
 20
1.0
 30
0.0
  9
$PUCSNAME
  2

  9
$PUCSORG
 10
0.0
 20
0.0
 30
0.0
  9
$PUCSXDIR
 10
1.0
 20
0.0
 30
0.0
  9
$PUCSYDIR
 10
0.0
 20
1.0
 30
0.0
  9
$USERI1
 70
     0
  9
$USERI2
 70
     0
  9
$USERI3
 70
     0
  9
$USERI4
 70
     0
  9
$USERI5
 70
     0
  9
$USERR1
 40
0.0
  9
$USERR2
 40
0.0
  9
$USERR3
 40
0.0
  9
$USERR4
 40
0.0
  9
$USERR5
 40
0.0
  9
$WORLDVIEW
 70
     1
  9
$SHADEDGE
 70
     3
  9
$SHADEDIF
 70
    70
  9
$TILEMODE
 70
     1
  9
$MAXACTVP
 70
    64
  9
$PLIMCHECK
 70
     0
  9
$PEXTMIN
 10
1.000000000000000E+20
 20
1.000000000000000E+20
 30
1.000000000000000E+20
  9
$PEXTMAX
 10
-1.000000000000000E+20
 20
-1.000000000000000E+20
 30
-1.000000000000000E+20
  9
$PLIMMIN
 10
0.0
 20
0.0
  9
$PLIMMAX
 10
420.0
 20
297.0
  9
$UNITMODE
 70
     0
  9
$VISRETAIN
 70
     1
  9
$PLINEGEN
 70
     0
  9
$PSLTSCALE
 70
     1
  0
ENDSEC
  0
SECTION
  2
TABLES
  0
TABLE
  2
VPORT
 70
     1
  0
VPORT
  2
*ACTIVE
 70
     0
 10
0.0
 20
0.0
 11
1.0
 21
1.0
 12
275.8872296094459
 22
154.1702623069936
 13
0.0
 23
0.0
 14
10.0
 24
10.0
 15
10.0
 25
10.0
 16
0.0
 26
0.0
 36
1.0
 17
0.0
 27
0.0
 37
0.0
 40
97.155
 41
3.0
 42
50.0
 43
0.0
 44
0.0
 50
0.0
 51
0.0
 71
     0
 72
   100
 73
     1
 74
     3
 75
     0
 76
     0
 77
     0
 78
     0
  0
ENDTAB
  0
TABLE
  2
LTYPE
 70
     1
  0
LTYPE
  2
CONTINUOUS
 70
     0
  3
Solid line
 72
    65
 73
     0
 40
0.0
  0
ENDTAB
  0
TABLE
  2
LAYER
 70
     2
  0
LAYER
  2
0
 70
     0
 62
     7
  6
CONTINUOUS
  0
LAYER
  2
VISIBLE
 70
     0
 62
     7
  6
CONTINUOUS
  0
ENDTAB
  0
TABLE
  2
STYLE
 70
    27
  0
STYLE
  2
STANDARD
 70
     0
 40
0.0
 41
1.0
 50
0.0
 71
     0
 42
3.5
  3
txt
  4

  0
STYLE
  2
ONSHAPE-STANDARD
 70
     0
 40
0.0
 41
1.0
 50
0.0
 71
     0
 42
3.5
  3
NotoSans-Regular.ttf
  4

  0
STYLE
  2
ONSHAPE-STANDARD-DIMENSION
 70
     0
 40
0.0
 41
1.0
 50
0.0
 71
     0
 42
3.5
  3

  4

  0
STYLE
  2
ONSHAPE-STANDARD-BOLD
 70
     0
 40
0.0
 41
1.0
 50
0.0
 71
     0
 42
3.5
  3
NotoSans-Bold.ttf
  4

  0
STYLE
  2
ONSHAPE-STANDARD-FIELDS
 70
     0
 40
0.0
 41
1.0
 50
0.0
 71
     0
 42
3.5
  3

  4

  0
STYLE
  2
ONSHAPE-STANDARD-TCFIELDS
 70
     0
 40
0.0
 41
1.0
 50
0.0
 71
     0
 42
3.5
  3
NotoSansTC-Regular.otf
  4

  0
STYLE
  2
ONSHAPE-STANDARD-SCFIELDS
 70
     0
 40
0.0
 41
1.0
 50
0.0
 71
     0
 42
3.5
  3
NotoSansSC-Regular.otf
  4

  0
STYLE
  2
ONSHAPE-STANDARD-KOREANFIE
 70
     0
 40
0.0
 41
1.0
 50
0.0
 71
     0
 42
3.5
  3
NotoSansKR-Regular.otf
  4

  0
STYLE
  2
TTFSTYLE
 70
     0
 40
0.0
 41
1.0
 50
0.0
 71
     0
 42
3.5
  3
Verdana.ttf
  4

  0
STYLE
  2
ONSHAPE-STANDARD-GTOLERANC
 70
     0
 40
0.0
 41
1.0
 50
0.0
 71
     0
 42
3.5
  3

  4

  0
STYLE
  2
ONSHAPE-STANDARD-TABLE-DAT
 70
     0
 40
0.0
 41
1.0
 50
0.0
 71
     0
 42
3.5
  3
NotoSans-Regular.ttf
  4

  0
STYLE
  2
ONSHAPE-STANDARD-TABLE-TIT
 70
     0
 40
0.0
 41
1.0
 50
0.0
 71
     0
 42
3.5
  3
NotoSans-Bold.ttf
  4

  0
STYLE
  2
ONSHAPE-STANDARD-TABLE-HEA
 70
     0
 40
0.0
 41
1.0
 50
0.0
 71
     0
 42
3.5
  3
NotoSans-Bold.ttf
  4

  0
STYLE
  2
ONSHAPE-STANDARD-BOMTABLE-
 70
     0
 40
0.0
 41
1.0
 50
0.0
 71
     0
 42
3.5
  3
NotoSans-Regular.ttf
  4

  0
STYLE
  2
ONSHAPE-STANDARD-BOMTABLE0
 70
     0
 40
0.0
 41
1.0
 50
0.0
 71
     0
 42
3.5
  3
NotoSans-Bold.ttf
  4

  0
STYLE
  2
ONSHAPE-STANDARD-BOMTABLE1
 70
     0
 40
0.0
 41
1.0
 50
0.0
 71
     0
 42
3.5
  3
NotoSans-Bold.ttf
  4

  0
STYLE
  2
ONSHAPE-STANDARD-NOTESTYLE
 70
     0
 40
3.5
 41
1.0
 50
0.0
 71
     0
 42
3.5
  3
Noto Sans
  4

  0
STYLE
  2
ONSHAPE-STANDARD-VIEW-LABE
 70
     0
 40
3.5
 41
1.0
 50
0.0
 71
     0
 42
3.5
  3
NotoSans-Regular.ttf
  4

  0
STYLE
  2
ONSHAPE-STANDARD-HOLE-CALL
 70
     0
 40
3.5
 41
1.0
 50
0.0
 71
     0
 42
3.5
  3
Noto Sans
  4

  0
STYLE
  2
ONSHAPE-STANDARD-HOLETABLE
 70
     0
 40
0.0
 41
1.0
 50
0.0
 71
     0
 42
3.5
  3
NotoSans-Regular.ttf
  4

  0
STYLE
  2
ONSHAPE-STANDARD-HOLETABL0
 70
     0
 40
0.0
 41
1.0
 50
0.0
 71
     0
 42
3.5
  3
NotoSans-Bold.ttf
  4

  0
STYLE
  2
ONSHAPE-STANDARD-HOLETABL1
 70
     0
 40
0.0
 41
1.0
 50
0.0
 71
     0
 42
3.5
  3
NotoSans-Bold.ttf
  4

  0
STYLE
  2
ONSHAPE-STANDARD-HOLE-TAG
 70
     0
 40
3.5
 41
1.0
 50
0.0
 71
     0
 42
3.5
  3
Noto Sans
  4

  0
STYLE
  2
ONSHAPE-STANDARD-REVISIONT
 70
     0
 40
0.0
 41
1.0
 50
0.0
 71
     0
 42
3.5
  3
NotoSans-Regular.ttf
  4

  0
STYLE
  2
ONSHAPE-STANDARD-REVISION0
 70
     0
 40
0.0
 41
1.0
 50
0.0
 71
     0
 42
3.5
  3
NotoSans-Bold.ttf
  4

  0
STYLE
  2
ONSHAPE-STANDARD-REVISION1
 70
     0
 40
0.0
 41
1.0
 50
0.0
 71
     0
 42
3.5
  3
NotoSans-Bold.ttf
  4

  0
STYLE
  2
ONSHAPE-STANDARD-REVISION-
 70
     0
 40
3.5
 41
1.0
 50
0.0
 71
     0
 42
3.5
  3
Noto Sans
  4

  0
ENDTAB
  0
TABLE
  2
VIEW
 70
     0
  0
ENDTAB
  0
TABLE
  2
UCS
 70
     0
  0
ENDTAB
  0
TABLE
  2
APPID
 70
     1
  0
APPID
  2
ACAD
 70
     0
  0
ENDTAB
  0
TABLE
  2
DIMSTYLE
 70
    18
  0
DIMSTYLE
  2
ISO-25
 70
     0
  3

  4

  5

  6

  7

 40
1.0
 41
2.5
 42
0.625
 43
3.75
 44
1.25
 45
0.0
 46
0.0
 47
0.0
 48
0.0
140
2.5
141
2.5
142
0.0
143
0.03937007874016
144
1.0
145
0.0
146
1.0
147
0.625
 71
     0
 72
     0
 73
     0
 74
     0
 75
     0
 76
     0
 77
     1
 78
     8
170
     0
171
     3
172
     1
173
     0
174
     0
175
     0
176
     0
177
     0
178
     0
  0
DIMSTYLE
  2
ONSHAPE-ISO-25
 70
     0
  3

  4

  5

  6

  7

 40
1.0
 41
2.5
 42
0.625
 43
3.75
 44
1.25
 45
0.0
 46
0.0
 47
0.0
 48
0.0
140
3.5
141
2.5
142
0.0
143
0.03937
144
1.0
145
0.0
146
1.0
147
0.625
 71
     0
 72
     0
 73
     0
 74
     0
 75
     0
 76
     0
 77
     1
 78
     8
170
     0
171
     3
172
     1
173
     0
174
     0
175
     0
176
     7
177
     7
178
     7
  0
DIMSTYLE
  2
ISO
 70
     0
  3

  4
"
  5

  6

  7

 40
1.0
 41
3.5
 42
1.0
 43
10.0
 44
1.0
 45
0.0
 46
0.0
 47
0.1
 48
0.1
140
3.5
141
0.0
142
0.0
143
0.03937
144
1.0
145
0.0
146
0.71
147
1.5
 71
     0
 72
     0
 73
     0
 74
     0
 75
     0
 76
     0
 77
     1
 78
     8
170
     0
171
     3
172
     1
173
     0
174
     0
175
     0
176
     7
177
     7
178
     7
  0
DIMSTYLE
  2
ISO$3
 70
     0
  3

  4
"
  5

  6

  7

 40
1.0
 41
3.5
 42
1.0
 43
10.0
 44
1.0
 45
0.0
 46
0.0
 47
0.1
 48
0.1
140
3.5
141
0.0
142
0.0
143
0.03937
144
1.0
145
0.0
146
0.71
147
1.5
 71
     0
 72
     0
 73
     0
 74
     1
 75
     0
 76
     0
 77
     1
 78
     8
170
     0
171
     3
172
     0
173
     0
174
     0
175
     0
176
     7
177
     7
178
     7
  0
DIMSTYLE
  2
ISO$4
 70
     0
  3

  4
"
  5

  6

  7

 40
1.0
 41
3.5
 42
1.0
 43
10.0
 44
1.0
 45
0.0
 46
0.0
 47
0.1
 48
0.1
140
3.5
141
0.0
142
0.0
143
0.03937
144
1.0
145
0.0
146
0.71
147
1.5
 71
     0
 72
     0
 73
     0
 74
     0
 75
     0
 76
     0
 77
     1
 78
     8
170
     0
171
     3
172
     1
173
     0
174
     0
175
     0
176
     7
177
     7
178
     7
  0
DIMSTYLE
  2
ISO$6
 70
     0
  3

  4
"
  5

  6

  7

 40
1.0
 41
0.5
 42
1.0
 43
10.0
 44
1.0
 45
0.0
 46
0.0
 47
0.1
 48
0.1
140
3.5
141
0.0
142
0.0
143
0.03937
144
1.0
145
0.0
146
0.71
147
1.5
 71
     0
 72
     0
 73
     0
 74
     0
 75
     0
 76
     0
 77
     0
 78
     8
170
     0
171
     3
172
     1
173
     0
174
     0
175
     0
176
     7
177
     7
178
     7
  0
DIMSTYLE
  2
ISO$7
 70
     0
  3

  4
"
  5

  6

  7

 40
1.0
 41
3.5
 42
1.0
 43
10.0
 44
1.0
 45
0.0
 46
0.0
 47
0.1
 48
0.1
140
3.5
141
0.0
142
0.0
143
0.03937
144
1.0
145
0.0
146
0.71
147
1.5
 71
     0
 72
     0
 73
     0
 74
     0
 75
     0
 76
     0
 77
     1
 78
     8
170
     0
171
     3
172
     1
173
     0
174
     0
175
     0
176
     7
177
     7
178
     7
  0
DIMSTYLE
  2
ISO$SF
 70
     0
  3

  4
"
  5

  6

  7

 40
1.0
 41
3.5
 42
1.0
 43
10.0
 44
1.0
 45
0.0
 46
0.0
 47
0.1
 48
0.1
140
3.5
141
0.0
142
0.0
143
0.03937
144
1.0
145
0.0
146
0.71
147
1.5
 71
     0
 72
     0
 73
     0
 74
     0
 75
     1
 76
     1
 77
     1
 78
     8
170
     0
171
     3
172
     1
173
     0
174
     0
175
     0
176
     7
177
     7
178
     7
  0
DIMSTYLE
  2
ISO$SH
 70
     0
  3

  4
"
  5

  6

  7

 40
1.0
 41
3.5
 42
1.0
 43
10.0
 44
1.0
 45
0.0
 46
0.0
 47
0.1
 48
0.1
140
3.5
141
0.0
142
0.0
143
0.03937
144
2.0
145
0.0
146
0.71
147
1.5
 71
     0
 72
     0
 73
     0
 74
     0
 75
     1
 76
     1
 77
     1
 78
     8
170
     0
171
     3
172
     1
173
     1
174
     0
175
     0
176
     7
177
     7
178
     7
  0
DIMSTYLE
  2
ONSHAPE-ISO-25$0
 70
     0
  3

  4

  5

  6

  7

 40
1.0
 41
2.5
 42
0.625
 43
3.75
 44
1.25
 45
0.0
 46
0.0
 47
0.0
 48
0.0
140
3.5
141
2.5
142
0.0
143
0.03937
144
1.0
145
0.0
146
1.0
147
0.625
 71
     0
 72
     0
 73
     0
 74
     0
 75
     0
 76
     0
 77
     1
 78
     8
170
     0
171
     3
172
     1
173
     0
174
     0
175
     0
176
     7
177
     7
178
     7
  0
DIMSTYLE
  2
ONSHAPE-ISO-25$2
 70
     0
  3

  4

  5

  6

  7

 40
1.0
 41
2.5
 42
0.625
 43
3.75
 44
1.25
 45
0.0
 46
0.0
 47
0.0
 48
0.0
140
3.5
141
2.5
142
0.0
143
0.03937
144
1.0
145
0.0
146
1.0
147
0.625
 71
     0
 72
     0
 73
     0
 74
     0
 75
     0
 76
     0
 77
     1
 78
     8
170
     0
171
     3
172
     1
173
     0
174
     0
175
     0
176
     7
177
     7
178
     7
  0
DIMSTYLE
  2
ONSHAPE-ISO-25$3
 70
     0
  3

  4

  5

  6

  7

 40
1.0
 41
2.5
 42
0.625
 43
3.75
 44
1.25
 45
0.0
 46
0.0
 47
0.0
 48
0.0
140
3.5
141
0.0
142
0.0
143
0.03937
144
1.0
145
0.0
146
1.0
147
0.625
 71
     0
 72
     0
 73
     0
 74
     0
 75
     0
 76
     0
 77
     1
 78
     8
170
     0
171
     3
172
     1
173
     0
174
     0
175
     0
176
     7
177
     7
178
     7
  0
DIMSTYLE
  2
ONSHAPE-ISO-25$4
 70
     0
  3

  4

  5

  6

  7

 40
1.0
 41
2.5
 42
0.625
 43
3.75
 44
1.25
 45
0.0
 46
0.0
 47
0.0
 48
0.0
140
3.5
141
0.0
142
0.0
143
0.03937
144
1.0
145
0.0
146
1.0
147
0.625
 71
     0
 72
     0
 73
     0
 74
     0
 75
     0
 76
     0
 77
     1
 78
     8
170
     0
171
     3
172
     1
173
     0
174
     0
175
     0
176
     7
177
     7
178
     7
  0
DIMSTYLE
  2
ONSHAPE-ISO-25$6
 70
     0
  3

  4

  5

  6

  7

 40
1.0
 41
0.5
 42
0.625
 43
3.75
 44
1.25
 45
0.0
 46
0.0
 47
0.0
 48
0.0
140
3.5
141
2.5
142
0.0
143
0.03937
144
1.0
145
0.0
146
1.0
147
0.625
 71
     0
 72
     0
 73
     0
 74
     0
 75
     0
 76
     0
 77
     1
 78
     8
170
     0
171
     3
172
     1
173
     0
174
     0
175
     0
176
     7
177
     7
178
     7
  0
DIMSTYLE
  2
ONSHAPE-ISO-25$7
 70
     0
  3

  4

  5

  6

  7

 40
1.0
 41
2.5
 42
0.625
 43
3.75
 44
1.25
 45
0.0
 46
0.0
 47
0.0
 48
0.0
140
3.5
141
2.5
142
0.0
143
0.03937
144
1.0
145
0.0
146
1.0
147
0.625
 71
     0
 72
     0
 73
     0
 74
     0
 75
     0
 76
     0
 77
     1
 78
     8
170
     0
171
     3
172
     1
173
     0
174
     0
175
     0
176
     7
177
     7
178
     7
  0
DIMSTYLE
  2
ONSHAPE-STANDARD-GTOLERANC
 70
     0
  3

  4

  5

  6

  7

 40
1.0
 41
2.5
 42
0.625
 43
3.75
 44
1.25
 45
0.0
 46
0.0
 47
0.0
 48
0.0
140
3.5
141
2.5
142
0.0
143
0.03937
144
1.0
145
0.0
146
1.0
147
0.625
 71
     0
 72
     0
 73
     0
 74
     0
 75
     0
 76
     0
 77
     1
 78
     8
170
     0
171
     3
172
     1
173
     0
174
     0
175
     0
176
     7
177
     7
178
     7
  0
DIMSTYLE
  2
ONSHAPE-ORDINATESTYLE
 70
     0
  3

  4

  5

  6

  7

 40
1.0
 41
2.5
 42
0.625
 43
3.75
 44
1.25
 45
0.0
 46
0.0
 47
0.0
 48
0.0
140
3.5
141
2.5
142
0.0
143
0.03937
144
1.0
145
0.0
146
1.0
147
0.625
 71
     0
 72
     0
 73
     0
 74
     0
 75
     0
 76
     0
 77
     1
 78
     8
170
     0
171
     3
172
     1
173
     0
174
     0
175
     0
176
     7
177
     7
178
     7
  0
DIMSTYLE
  2
ONSHAPE-CHAMFERDIMSTYLE
 70
     0
  3

  4

  5

  6

  7

 40
1.0
 41
2.5
 42
0.625
 43
3.75
 44
1.25
 45
0.0
 46
0.0
 47
0.0
 48
0.0
140
3.5
141
2.5
142
0.0
143
0.03937
144
1.0
145
0.0
146
1.0
147
0.625
 71
     0
 72
     0
 73
     0
 74
     0
 75
     0
 76
     0
 77
     1
 78
     8
170
     0
171
     3
172
     1
173
     0
174
     0
175
     0
176
     7
177
     7
178
     7
  0
ENDTAB
  0
ENDSEC
  0
SECTION
  2
BLOCKS
  0
BLOCK
  8
0
  2
$MODEL_SPACE
 70
     0
 10
0.0
 20
0.0
 30
0.0
  3
$MODEL_SPACE
  1

  0
ENDBLK
  5
21
  8
0
  0
BLOCK
 67
     1
  8
0
  2
$PAPER_SPACE
 70
     0
 10
0.0
 20
0.0
 30
0.0
  3
$PAPER_SPACE
  1

  0
ENDBLK
  5
1D
 67
     1
  8
0
  0
ENDSEC
  0
SECTION
  2
ENTITIES
  0
ARC
  5
75
  8
VISIBLE
 10
407.6502296094459
 20
184.7702623069936
 30
0.0
 40
0.5
 50
0.0
 51
90.0
  0
ARC
  5
76
  8
VISIBLE
 10
414.6502296094459
 20
198.7702623069936
 30
0.0
 40
0.5
 50
0.0
 51
90.0
  0
ARC
  5
77
  8
VISIBLE
 10
384.7742296094459
 20
198.7702623069936
 30
0.0
 40
0.5
 50
90.0
 51
180.0
  0
ARC
  5
78
  8
VISIBLE
 10
391.7742296094459
 20
184.7702623069936
 30
0.0
 40
0.5
 50
90.0
 51
180.0
  0
ARC
  5
79
  8
VISIBLE
 10
412.2689796094459
 20
160.6702623069936
 30
0.0
 40
0.5
 50
0.0
 51
90.0
  0
ARC
  5
7A
  8
VISIBLE
 10
382.3929796094458
 20
160.6702623069936
 30
0.0
 40
0.5
 50
90.0
 51
180.0
  0
ARC
  5
7B
  8
VISIBLE
 10
389.3929796094459
 20
146.6702623069936
 30
0.0
 40
0.5
 50
90.0
 51
180.0
  0
ARC
  5
7C
  8
VISIBLE
 10
405.2689796094459
 20
146.6702623069936
 30
0.0
 40
0.5
 50
0.0
 51
90.0
  0
ARC
  5
7D
  8
VISIBLE
 10
416.5122296094459
 20
108.7952623069936
 30
0.0
 40
2.25
 50
270.0
 51
0.0
  0
ARC
  5
7E
  8
VISIBLE
 10
135.2622296094459
 20
108.7952623069936
 30
0.0
 40
2.25
 50
180.0
 51
270.0
  0
ARC
  5
7F
  8
VISIBLE
 10
135.2622296094459
 20
199.5452623069936
 30
0.0
 40
2.25
 50
90.0
 51
180.0
  0
ARC
  5
80
  8
VISIBLE
 10
416.5122296094459
 20
199.5452623069936
 30
0.0
 40
2.25
 50
0.0
 51
90.0
  0
ARC
  5
81
  8
VISIBLE
 10
162.3814796094458
 20
127.6202623069936
 30
0.0
 40
0.5
 50
0.0
 51
90.0
  0
ARC
  5
82
  8
VISIBLE
 10
169.3814796094459
 20
141.6202623069936
 30
0.0
 40
0.5
 50
0.0
 51
90.0
  0
ARC
  5
83
  8
VISIBLE
 10
139.5054796094459
 20
141.6202623069936
 30
0.0
 40
0.5
 50
90.0
 51
180.0
  0
ARC
  5
84
  8
VISIBLE
 10
146.5054796094459
 20
127.6202623069936
 30
0.0
 40
0.5
 50
90.0
 51
180.0
  0
LINE
  5
85
  8
VISIBLE
 10
384.2742296094459
 20
198.7702623069936
 30
0.0
 11
384.2742296094459
 21
183.7702623069936
 31
0.0
  0
LINE
  5
86
  8
VISIBLE
 10
135.5372296094459
 20
198.7702623069936
 30
0.0
 11
135.5372296094459
 21
185.7702623069936
 31
0.0
  0
LINE
  5
87
  8
VISIBLE
 10
154.5872296094458
 20
198.7702623069936
 30
0.0
 11
154.5872296094458
 21
185.7702623069936
 31
0.0
  0
LINE
  5
88
  8
VISIBLE
 10
173.6372296094459
 20
198.7702623069936
 30
0.0
 11
173.6372296094459
 21
185.7702623069936
 31
0.0
  0
LINE
  5
89
  8
VISIBLE
 10
192.6872296094459
 20
198.7702623069936
 30
0.0
 11
192.6872296094459
 21
185.7702623069936
 31
0.0
  0
LINE
  5
8A
  8
VISIBLE
 10
211.7372296094458
 20
198.7702623069936
 30
0.0
 11
211.7372296094458
 21
185.7702623069936
 31
0.0
  0
LINE
  5
8B
  8
VISIBLE
 10
230.7872296094459
 20
198.7702623069936
 30
0.0
 11
230.7872296094459
 21
185.7702623069936
 31
0.0
  0
LINE
  5
8C
  8
VISIBLE
 10
249.8372296094458
 20
198.7702623069936
 30
0.0
 11
249.8372296094458
 21
185.7702623069936
 31
0.0
  0
LINE
  5
8D
  8
VISIBLE
 10
268.8872296094459
 20
198.7702623069936
 30
0.0
 11
268.8872296094459
 21
185.7702623069936
 31
0.0
  0
LINE
  5
8E
  8
VISIBLE
 10
287.9372296094459
 20
198.7702623069936
 30
0.0
 11
287.9372296094459
 21
185.7702623069936
 31
0.0
  0
LINE
  5
8F
  8
VISIBLE
 10
306.9872296094459
 20
198.7702623069936
 30
0.0
 11
306.9872296094459
 21
185.7702623069936
 31
0.0
  0
LINE
  5
90
  8
VISIBLE
 10
326.0372296094458
 20
198.7702623069936
 30
0.0
 11
326.0372296094458
 21
185.7702623069936
 31
0.0
  0
LINE
  5
91
  8
VISIBLE
 10
345.0872296094458
 20
198.7702623069936
 30
0.0
 11
345.0872296094458
 21
185.7702623069936
 31
0.0
  0
LINE
  5
92
  8
VISIBLE
 10
364.1372296094459
 20
198.7702623069936
 30
0.0
 11
364.1372296094459
 21
185.7702623069936
 31
0.0
  0
LINE
  5
93
  8
VISIBLE
 10
140.2997296094458
 20
179.7202623069936
 30
0.0
 11
140.2997296094458
 21
166.7202623069936
 31
0.0
  0
LINE
  5
94
  8
VISIBLE
 10
164.1122296094458
 20
179.7202623069936
 30
0.0
 11
164.1122296094458
 21
166.7202623069936
 31
0.0
  0
LINE
  5
95
  8
VISIBLE
 10
183.1622296094458
 20
179.7202623069936
 30
0.0
 11
183.1622296094458
 21
166.7202623069936
 31
0.0
  0
LINE
  5
96
  8
VISIBLE
 10
202.2122296094458
 20
179.7202623069936
 30
0.0
 11
202.2122296094458
 21
166.7202623069936
 31
0.0
  0
LINE
  5
97
  8
VISIBLE
 10
221.2622296094459
 20
179.7202623069936
 30
0.0
 11
221.2622296094459
 21
166.7202623069936
 31
0.0
  0
LINE
  5
98
  8
VISIBLE
 10
240.3122296094459
 20
179.7202623069936
 30
0.0
 11
240.3122296094459
 21
166.7202623069936
 31
0.0
  0
LINE
  5
99
  8
VISIBLE
 10
259.3622296094459
 20
179.7202623069936
 30
0.0
 11
259.3622296094459
 21
166.7202623069936
 31
0.0
  0
LINE
  5
9A
  8
VISIBLE
 10
278.4122296094458
 20
179.7202623069936
 30
0.0
 11
278.4122296094458
 21
166.7202623069936
 31
0.0
  0
LINE
  5
9B
  8
VISIBLE
 10
297.4622296094458
 20
179.7202623069936
 30
0.0
 11
297.4622296094458
 21
166.7202623069936
 31
0.0
  0
LINE
  5
9C
  8
VISIBLE
 10
316.5122296094459
 20
179.7202623069936
 30
0.0
 11
316.5122296094459
 21
166.7202623069936
 31
0.0
  0
LINE
  5
9D
  8
VISIBLE
 10
335.5622296094459
 20
179.7202623069936
 30
0.0
 11
335.5622296094459
 21
166.7202623069936
 31
0.0
  0
LINE
  5
9E
  8
VISIBLE
 10
354.6122296094459
 20
179.7202623069936
 30
0.0
 11
354.6122296094459
 21
166.7202623069936
 31
0.0
  0
LINE
  5
9F
  8
VISIBLE
 10
373.6622296094458
 20
179.7202623069936
 30
0.0
 11
373.6622296094458
 21
166.7202623069936
 31
0.0
  0
LINE
  5
A0
  8
VISIBLE
 10
397.4747296094458
 20
179.7202623069936
 30
0.0
 11
397.4747296094458
 21
166.7202623069936
 31
0.0
  0
LINE
  5
A1
  8
VISIBLE
 10
168.8747296094459
 20
160.6702623069936
 30
0.0
 11
168.8747296094459
 21
147.6702623069936
 31
0.0
  0
LINE
  5
A2
  8
VISIBLE
 10
187.9247296094458
 20
160.6702623069936
 30
0.0
 11
187.9247296094458
 21
147.6702623069936
 31
0.0
  0
LINE
  5
A3
  8
VISIBLE
 10
206.9747296094458
 20
160.6702623069936
 30
0.0
 11
206.9747296094458
 21
147.6702623069936
 31
0.0
  0
LINE
  5
A4
  8
VISIBLE
 10
226.0247296094458
 20
160.6702623069936
 30
0.0
 11
226.0247296094458
 21
147.6702623069936
 31
0.0
  0
LINE
  5
A5
  8
VISIBLE
 10
245.0747296094459
 20
160.6702623069936
 30
0.0
 11
245.0747296094459
 21
147.6702623069936
 31
0.0
  0
LINE
  5
A6
  8
VISIBLE
 10
264.1247296094459
 20
160.6702623069936
 30
0.0
 11
264.1247296094459
 21
147.6702623069936
 31
0.0
  0
LINE
  5
A7
  8
VISIBLE
 10
283.1747296094459
 20
160.6702623069936
 30
0.0
 11
283.1747296094459
 21
147.6702623069936
 31
0.0
  0
LINE
  5
A8
  8
VISIBLE
 10
302.2247296094458
 20
160.6702623069936
 30
0.0
 11
302.2247296094458
 21
147.6702623069936
 31
0.0
  0
LINE
  5
A9
  8
VISIBLE
 10
321.2747296094458
 20
160.6702623069936
 30
0.0
 11
321.2747296094458
 21
147.6702623069936
 31
0.0
  0
LINE
  5
AA
  8
VISIBLE
 10
340.3247296094459
 20
160.6702623069936
 30
0.0
 11
340.3247296094459
 21
147.6702623069936
 31
0.0
  0
LINE
  5
AB
  8
VISIBLE
 10
359.3747296094459
 20
160.6702623069936
 30
0.0
 11
359.3747296094459
 21
147.6702623069936
 31
0.0
  0
LINE
  5
AC
  8
VISIBLE
 10
162.8814796094458
 20
127.6202623069936
 30
0.0
 11
162.8814796094458
 21
126.6202623069936
 31
0.0
  0
LINE
  5
AD
  8
VISIBLE
 10
178.3997296094458
 20
141.6202623069936
 30
0.0
 11
178.3997296094458
 21
128.6202623069936
 31
0.0
  0
LINE
  5
AE
  8
VISIBLE
 10
197.4497296094459
 20
141.6202623069936
 30
0.0
 11
197.4497296094459
 21
128.6202623069936
 31
0.0
  0
LINE
  5
AF
  8
VISIBLE
 10
216.4997296094459
 20
141.6202623069936
 30
0.0
 11
216.4997296094459
 21
128.6202623069936
 31
0.0
  0
LINE
  5
B0
  8
VISIBLE
 10
235.5497296094458
 20
141.6202623069936
 30
0.0
 11
235.5497296094458
 21
128.6202623069936
 31
0.0
  0
LINE
  5
B1
  8
VISIBLE
 10
254.5997296094459
 20
141.6202623069936
 30
0.0
 11
254.5997296094459
 21
128.6202623069936
 31
0.0
  0
LINE
  5
B2
  8
VISIBLE
 10
273.6497296094458
 20
141.6202623069936
 30
0.0
 11
273.6497296094458
 21
128.6202623069936
 31
0.0
  0
LINE
  5
B3
  8
VISIBLE
 10
292.6997296094459
 20
141.6202623069936
 30
0.0
 11
292.6997296094459
 21
128.6202623069936
 31
0.0
  0
LINE
  5
B4
  8
VISIBLE
 10
311.7497296094459
 20
141.6202623069936
 30
0.0
 11
311.7497296094459
 21
128.6202623069936
 31
0.0
  0
LINE
  5
B5
  8
VISIBLE
 10
330.7997296094459
 20
141.6202623069936
 30
0.0
 11
330.7997296094459
 21
128.6202623069936
 31
0.0
  0
LINE
  5
B6
  8
VISIBLE
 10
349.8497296094458
 20
141.6202623069936
 30
0.0
 11
349.8497296094458
 21
128.6202623069936
 31
0.0
  0
LINE
  5
B7
  8
VISIBLE
 10
376.0434796094459
 20
141.6202623069936
 30
0.0
 11
376.0434796094459
 21
128.6202623069936
 31
0.0
  0
LINE
  5
B8
  8
VISIBLE
 10
402.2372296094459
 20
141.6202623069936
 30
0.0
 11
402.2372296094459
 21
128.6202623069936
 31
0.0
  0
LINE
  5
B9
  8
VISIBLE
 10
140.2997296094458
 20
122.5702623069936
 30
0.0
 11
140.2997296094458
 21
109.5702623069936
 31
0.0
  0
LINE
  5
BA
  8
VISIBLE
 10
164.1122296094458
 20
122.5702623069936
 30
0.0
 11
164.1122296094458
 21
109.5702623069936
 31
0.0
  0
LINE
  5
BB
  8
VISIBLE
 10
187.9247296094458
 20
122.5702623069936
 30
0.0
 11
187.9247296094458
 21
109.5702623069936
 31
0.0
  0
LINE
  5
BC
  8
VISIBLE
 10
268.8872296094459
 20
122.5702623069936
 30
0.0
 11
268.8872296094459
 21
109.5702623069936
 31
0.0
  0
LINE
  5
BD
  8
VISIBLE
 10
222.2372296094458
 20
110.5702623069936
 30
0.0
 11
222.2372296094458
 21
124.5702623069936
 31
0.0
  0
LINE
  5
BE
  8
VISIBLE
 10
336.5372296094458
 20
110.5702623069936
 30
0.0
 11
336.5372296094458
 21
124.5702623069936
 31
0.0
  0
LINE
  5
BF
  8
VISIBLE
 10
349.8497296094458
 20
122.5702623069936
 30
0.0
 11
349.8497296094458
 21
109.5702623069936
 31
0.0
  0
LINE
  5
C0
  8
VISIBLE
 10
373.6622296094458
 20
122.5702623069936
 30
0.0
 11
373.6622296094458
 21
109.5702623069936
 31
0.0
  0
LINE
  5
C1
  8
VISIBLE
 10
397.4747296094458
 20
122.5702623069936
 30
0.0
 11
397.4747296094458
 21
109.5702623069936
 31
0.0
  0
LINE
  5
C2
  8
VISIBLE
 10
418.7622296094459
 20
199.5452623069936
 30
0.0
 11
418.7622296094459
 21
108.7952623069936
 31
0.0
  0
LINE
  5
C3
  8
VISIBLE
 10
381.8929796094458
 20
160.6702623069936
 30
0.0
 11
381.8929796094458
 21
145.6702623069936
 31
0.0
  0
ARC
  5
C4
  8
VISIBLE
 10
138.4184796094459
 20
160.6702623069936
 30
0.0
 40
0.5
 50
90.0
 51
180.0
  0
ARC
  5
C5
  8
VISIBLE
 10
136.0372296094459
 20
185.7702623069936
 30
0.0
 40
0.5
 50
180.0
 51
270.0
  0
LINE
  5
C6
  8
VISIBLE
 10
136.0372296094459
 20
185.2702623069936
 30
0.0
 11
149.0372296094459
 21
185.2702623069936
 31
0.0
  0
ARC
  5
C7
  8
VISIBLE
 10
149.0372296094459
 20
185.7702623069936
 30
0.0
 40
0.5
 50
270.0
 51
0.0
  0
LINE
  5
C8
  8
VISIBLE
 10
149.5372296094459
 20
198.7702623069936
 30
0.0
 11
149.5372296094459
 21
185.7702623069936
 31
0.0
  0
ARC
  5
C9
  8
VISIBLE
 10
149.0372296094459
 20
198.7702623069936
 30
0.0
 40
0.5
 50
0.0
 51
90.0
  0
LINE
  5
CA
  8
VISIBLE
 10
136.0372296094459
 20
199.2702623069936
 30
0.0
 11
149.0372296094459
 21
199.2702623069936
 31
0.0
  0
ARC
  5
CB
  8
VISIBLE
 10
136.0372296094459
 20
198.7702623069936
 30
0.0
 40
0.5
 50
90.0
 51
180.0
  0
ARC
  5
CC
  8
VISIBLE
 10
155.0872296094458
 20
185.7702623069936
 30
0.0
 40
0.500000000000011
 50
180.0
 51
270.0
  0
LINE
  5
CD
  8
VISIBLE
 10
155.0872296094458
 20
185.2702623069936
 30
0.0
 11
168.0872296094458
 21
185.2702623069936
 31
0.0
  0
ARC
  5
CE
  8
VISIBLE
 10
168.0872296094458
 20
185.7702623069936
 30
0.0
 40
0.5
 50
270.0
 51
0.0
  0
LINE
  5
CF
  8
VISIBLE
 10
168.5872296094458
 20
198.7702623069936
 30
0.0
 11
168.5872296094458
 21
185.7702623069936
 31
0.0
  0
ARC
  5
D0
  8
VISIBLE
 10
168.0872296094458
 20
198.7702623069936
 30
0.0
 40
0.5
 50
0.0
 51
90.0
  0
LINE
  5
D1
  8
VISIBLE
 10
155.0872296094458
 20
199.2702623069936
 30
0.0
 11
168.0872296094458
 21
199.2702623069936
 31
0.0
  0
ARC
  5
D2
  8
VISIBLE
 10
155.0872296094458
 20
198.7702623069936
 30
0.0
 40
0.500000000000011
 50
90.0
 51
180.0
  0
ARC
  5
D3
  8
VISIBLE
 10
174.1372296094459
 20
185.7702623069936
 30
0.0
 40
0.5
 50
180.0
 51
270.0
  0
LINE
  5
D4
  8
VISIBLE
 10
174.1372296094459
 20
185.2702623069936
 30
0.0
 11
187.1372296094459
 21
185.2702623069936
 31
0.0
  0
ARC
  5
D5
  8
VISIBLE
 10
187.1372296094459
 20
185.7702623069936
 30
0.0
 40
0.49999999999999
 50
270.0
 51
0.0
  0
LINE
  5
D6
  8
VISIBLE
 10
187.6372296094459
 20
198.7702623069936
 30
0.0
 11
187.6372296094459
 21
185.7702623069936
 31
0.0
  0
ARC
  5
D7
  8
VISIBLE
 10
187.1372296094459
 20
198.7702623069936
 30
0.0
 40
0.49999999999999
 50
0.0
 51
90.0
  0
LINE
  5
D8
  8
VISIBLE
 10
174.1372296094459
 20
199.2702623069936
 30
0.0
 11
187.1372296094459
 21
199.2702623069936
 31
0.0
  0
ARC
  5
D9
  8
VISIBLE
 10
174.1372296094459
 20
198.7702623069936
 30
0.0
 40
0.5
 50
90.0
 51
180.0
  0
ARC
  5
DA
  8
VISIBLE
 10
193.1872296094459
 20
185.7702623069936
 30
0.0
 40
0.5
 50
180.0
 51
270.0
  0
LINE
  5
DB
  8
VISIBLE
 10
193.1872296094459
 20
185.2702623069936
 30
0.0
 11
206.1872296094459
 21
185.2702623069936
 31
0.0
  0
ARC
  5
DC
  8
VISIBLE
 10
206.1872296094459
 20
185.7702623069936
 30
0.0
 40
0.5
 50
270.0
 51
0.0
  0
LINE
  5
DD
  8
VISIBLE
 10
206.6872296094459
 20
198.7702623069936
 30
0.0
 11
206.6872296094459
 21
185.7702623069936
 31
0.0
  0
ARC
  5
DE
  8
VISIBLE
 10
206.1872296094459
 20
198.7702623069936
 30
0.0
 40
0.5
 50
0.0
 51
90.0
  0
LINE
  5
DF
  8
VISIBLE
 10
193.1872296094459
 20
199.2702623069936
 30
0.0
 11
206.1872296094459
 21
199.2702623069936
 31
0.0
  0
ARC
  5
E0
  8
VISIBLE
 10
193.1872296094459
 20
198.7702623069936
 30
0.0
 40
0.5
 50
90.0
 51
180.0
  0
ARC
  5
E1
  8
VISIBLE
 10
212.2372296094458
 20
185.7702623069936
 30
0.0
 40
0.5
 50
180.0
 51
270.0
  0
LINE
  5
E2
  8
VISIBLE
 10
212.2372296094458
 20
185.2702623069936
 30
0.0
 11
225.2372296094458
 21
185.2702623069936
 31
0.0
  0
ARC
  5
E3
  8
VISIBLE
 10
225.2372296094458
 20
185.7702623069936
 30
0.0
 40
0.5
 50
270.0
 51
0.0
  0
LINE
  5
E4
  8
VISIBLE
 10
225.7372296094458
 20
198.7702623069936
 30
0.0
 11
225.7372296094458
 21
185.7702623069936
 31
0.0
  0
ARC
  5
E5
  8
VISIBLE
 10
225.2372296094458
 20
198.7702623069936
 30
0.0
 40
0.5
 50
0.0
 51
90.0
  0
LINE
  5
E6
  8
VISIBLE
 10
212.2372296094458
 20
199.2702623069936
 30
0.0
 11
225.2372296094458
 21
199.2702623069936
 31
0.0
  0
ARC
  5
E7
  8
VISIBLE
 10
212.2372296094458
 20
198.7702623069936
 30
0.0
 40
0.5
 50
90.0
 51
180.0
  0
ARC
  5
E8
  8
VISIBLE
 10
231.2872296094459
 20
185.7702623069936
 30
0.0
 40
0.5
 50
180.0
 51
270.0
  0
LINE
  5
E9
  8
VISIBLE
 10
231.2872296094459
 20
185.2702623069936
 30
0.0
 11
244.2872296094459
 21
185.2702623069936
 31
0.0
  0
ARC
  5
EA
  8
VISIBLE
 10
244.2872296094459
 20
185.7702623069936
 30
0.0
 40
0.5
 50
270.0
 51
0.0
  0
LINE
  5
EB
  8
VISIBLE
 10
244.7872296094459
 20
198.7702623069936
 30
0.0
 11
244.7872296094459
 21
185.7702623069936
 31
0.0
  0
ARC
  5
EC
  8
VISIBLE
 10
244.2872296094459
 20
198.7702623069936
 30
0.0
 40
0.5
 50
0.0
 51
90.0
  0
LINE
  5
ED
  8
VISIBLE
 10
231.2872296094459
 20
199.2702623069936
 30
0.0
 11
244.2872296094459
 21
199.2702623069936
 31
0.0
  0
ARC
  5
EE
  8
VISIBLE
 10
231.2872296094459
 20
198.7702623069936
 30
0.0
 40
0.5
 50
90.0
 51
180.0
  0
ARC
  5
EF
  8
VISIBLE
 10
250.3372296094458
 20
185.7702623069936
 30
0.0
 40
0.5
 50
180.0
 51
270.0
  0
LINE
  5
F0
  8
VISIBLE
 10
250.3372296094458
 20
185.2702623069936
 30
0.0
 11
263.3372296094458
 21
185.2702623069936
 31
0.0
  0
ARC
  5
F1
  8
VISIBLE
 10
263.3372296094458
 20
185.7702623069936
 30
0.0
 40
0.5
 50
270.0
 51
0.0
  0
LINE
  5
F2
  8
VISIBLE
 10
263.8372296094458
 20
198.7702623069936
 30
0.0
 11
263.8372296094458
 21
185.7702623069936
 31
0.0
  0
ARC
  5
F3
  8
VISIBLE
 10
263.3372296094458
 20
198.7702623069936
 30
0.0
 40
0.5
 50
0.0
 51
90.0
  0
LINE
  5
F4
  8
VISIBLE
 10
250.3372296094458
 20
199.2702623069936
 30
0.0
 11
263.3372296094458
 21
199.2702623069936
 31
0.0
  0
ARC
  5
F5
  8
VISIBLE
 10
250.3372296094458
 20
198.7702623069936
 30
0.0
 40
0.5
 50
90.0
 51
180.0
  0
ARC
  5
F6
  8
VISIBLE
 10
269.3872296094459
 20
185.7702623069936
 30
0.0
 40
0.5
 50
180.0
 51
270.0
  0
LINE
  5
F7
  8
VISIBLE
 10
269.3872296094459
 20
185.2702623069936
 30
0.0
 11
282.3872296094459
 21
185.2702623069936
 31
0.0
  0
ARC
  5
F8
  8
VISIBLE
 10
282.3872296094459
 20
185.7702623069936
 30
0.0
 40
0.5
 50
270.0
 51
0.0
  0
LINE
  5
F9
  8
VISIBLE
 10
282.8872296094459
 20
198.7702623069936
 30
0.0
 11
282.8872296094459
 21
185.7702623069936
 31
0.0
  0
ARC
  5
FA
  8
VISIBLE
 10
282.3872296094459
 20
198.7702623069936
 30
0.0
 40
0.5
 50
0.0
 51
90.0
  0
LINE
  5
FB
  8
VISIBLE
 10
269.3872296094459
 20
199.2702623069936
 30
0.0
 11
282.3872296094459
 21
199.2702623069936
 31
0.0
  0
ARC
  5
FC
  8
VISIBLE
 10
269.3872296094459
 20
198.7702623069936
 30
0.0
 40
0.5
 50
90.0
 51
180.0
  0
ARC
  5
FD
  8
VISIBLE
 10
288.4372296094459
 20
185.7702623069936
 30
0.0
 40
0.5
 50
180.0
 51
270.0
  0
LINE
  5
FE
  8
VISIBLE
 10
288.4372296094459
 20
185.2702623069936
 30
0.0
 11
301.4372296094459
 21
185.2702623069936
 31
0.0
  0
ARC
  5
FF
  8
VISIBLE
 10
301.4372296094459
 20
185.7702623069936
 30
0.0
 40
0.5
 50
270.0
 51
0.0
  0
LINE
  5
100
  8
VISIBLE
 10
301.9372296094459
 20
198.7702623069936
 30
0.0
 11
301.9372296094459
 21
185.7702623069936
 31
0.0
  0
ARC
  5
101
  8
VISIBLE
 10
301.4372296094459
 20
198.7702623069936
 30
0.0
 40
0.5
 50
0.0
 51
90.0
  0
LINE
  5
102
  8
VISIBLE
 10
288.4372296094459
 20
199.2702623069936
 30
0.0
 11
301.4372296094459
 21
199.2702623069936
 31
0.0
  0
ARC
  5
103
  8
VISIBLE
 10
288.4372296094459
 20
198.7702623069936
 30
0.0
 40
0.5
 50
90.0
 51
180.0
  0
ARC
  5
104
  8
VISIBLE
 10
307.4872296094459
 20
185.7702623069936
 30
0.0
 40
0.5
 50
180.0
 51
270.0
  0
LINE
  5
105
  8
VISIBLE
 10
307.4872296094459
 20
185.2702623069936
 30
0.0
 11
320.4872296094459
 21
185.2702623069936
 31
0.0
  0
ARC
  5
106
  8
VISIBLE
 10
320.4872296094459
 20
185.7702623069936
 30
0.0
 40
0.5
 50
270.0
 51
0.0
  0
LINE
  5
107
  8
VISIBLE
 10
320.9872296094459
 20
198.7702623069936
 30
0.0
 11
320.9872296094459
 21
185.7702623069936
 31
0.0
  0
ARC
  5
108
  8
VISIBLE
 10
320.4872296094459
 20
198.7702623069936
 30
0.0
 40
0.5
 50
0.0
 51
90.0
  0
LINE
  5
109
  8
VISIBLE
 10
307.4872296094459
 20
199.2702623069936
 30
0.0
 11
320.4872296094459
 21
199.2702623069936
 31
0.0
  0
ARC
  5
10A
  8
VISIBLE
 10
307.4872296094459
 20
198.7702623069936
 30
0.0
 40
0.5
 50
90.0
 51
180.0
  0
ARC
  5
10B
  8
VISIBLE
 10
326.5372296094458
 20
185.7702623069936
 30
0.0
 40
0.5
 50
180.0
 51
270.0
  0
LINE
  5
10C
  8
VISIBLE
 10
326.5372296094458
 20
185.2702623069936
 30
0.0
 11
339.5372296094458
 21
185.2702623069936
 31
0.0
  0
ARC
  5
10D
  8
VISIBLE
 10
339.5372296094458
 20
185.7702623069936
 30
0.0
 40
0.5
 50
270.0
 51
0.0
  0
LINE
  5
10E
  8
VISIBLE
 10
340.0372296094458
 20
198.7702623069936
 30
0.0
 11
340.0372296094458
 21
185.7702623069936
 31
0.0
  0
ARC
  5
10F
  8
VISIBLE
 10
339.5372296094458
 20
198.7702623069936
 30
0.0
 40
0.5
 50
0.0
 51
90.0
  0
LINE
  5
110
  8
VISIBLE
 10
326.5372296094458
 20
199.2702623069936
 30
0.0
 11
339.5372296094458
 21
199.2702623069936
 31
0.0
  0
ARC
  5
111
  8
VISIBLE
 10
326.5372296094458
 20
198.7702623069936
 30
0.0
 40
0.5
 50
90.0
 51
180.0
  0
ARC
  5
112
  8
VISIBLE
 10
345.5872296094458
 20
185.7702623069936
 30
0.0
 40
0.5
 50
180.0
 51
270.0
  0
LINE
  5
113
  8
VISIBLE
 10
345.5872296094458
 20
185.2702623069936
 30
0.0
 11
358.5872296094458
 21
185.2702623069936
 31
0.0
  0
ARC
  5
114
  8
VISIBLE
 10
358.5872296094458
 20
185.7702623069936
 30
0.0
 40
0.500000000000011
 50
270.0
 51
0.0
  0
LINE
  5
115
  8
VISIBLE
 10
359.0872296094458
 20
198.7702623069936
 30
0.0
 11
359.0872296094458
 21
185.7702623069936
 31
0.0
  0
ARC
  5
116
  8
VISIBLE
 10
358.5872296094458
 20
198.7702623069936
 30
0.0
 40
0.500000000000011
 50
0.0
 51
90.0
  0
LINE
  5
117
  8
VISIBLE
 10
345.5872296094458
 20
199.2702623069936
 30
0.0
 11
358.5872296094458
 21
199.2702623069936
 31
0.0
  0
ARC
  5
118
  8
VISIBLE
 10
345.5872296094458
 20
198.7702623069936
 30
0.0
 40
0.5
 50
90.0
 51
180.0
  0
ARC
  5
119
  8
VISIBLE
 10
364.6372296094459
 20
185.7702623069936
 30
0.0
 40
0.49999999999999
 50
180.0
 51
270.0
  0
LINE
  5
11A
  8
VISIBLE
 10
364.6372296094459
 20
185.2702623069936
 30
0.0
 11
377.6372296094459
 21
185.2702623069936
 31
0.0
  0
ARC
  5
11B
  8
VISIBLE
 10
377.6372296094459
 20
185.7702623069936
 30
0.0
 40
0.5
 50
270.0
 51
0.0
  0
LINE
  5
11C
  8
VISIBLE
 10
378.1372296094459
 20
198.7702623069936
 30
0.0
 11
378.1372296094459
 21
185.7702623069936
 31
0.0
  0
ARC
  5
11D
  8
VISIBLE
 10
377.6372296094459
 20
198.7702623069936
 30
0.0
 40
0.5
 50
0.0
 51
90.0
  0
LINE
  5
11E
  8
VISIBLE
 10
364.6372296094459
 20
199.2702623069936
 30
0.0
 11
377.6372296094459
 21
199.2702623069936
 31
0.0
  0
ARC
  5
11F
  8
VISIBLE
 10
364.6372296094459
 20
198.7702623069936
 30
0.0
 40
0.49999999999999
 50
90.0
 51
180.0
  0
ARC
  5
120
  8
VISIBLE
 10
140.7997296094458
 20
166.7202623069936
 30
0.0
 40
0.5
 50
180.0
 51
270.0
  0
LINE
  5
121
  8
VISIBLE
 10
140.7997296094458
 20
166.2202623069936
 30
0.0
 11
153.7997296094458
 21
166.2202623069936
 31
0.0
  0
ARC
  5
122
  8
VISIBLE
 10
153.7997296094458
 20
166.7202623069936
 30
0.0
 40
0.5
 50
270.0
 51
0.0
  0
LINE
  5
123
  8
VISIBLE
 10
154.2997296094458
 20
179.7202623069936
 30
0.0
 11
154.2997296094458
 21
166.7202623069936
 31
0.0
  0
ARC
  5
124
  8
VISIBLE
 10
153.7997296094458
 20
179.7202623069936
 30
0.0
 40
0.5
 50
0.0
 51
90.0
  0
LINE
  5
125
  8
VISIBLE
 10
140.7997296094458
 20
180.2202623069936
 30
0.0
 11
153.7997296094458
 21
180.2202623069936
 31
0.0
  0
ARC
  5
126
  8
VISIBLE
 10
140.7997296094458
 20
179.7202623069936
 30
0.0
 40
0.5
 50
90.0
 51
180.0
  0
ARC
  5
127
  8
VISIBLE
 10
164.6122296094458
 20
166.7202623069936
 30
0.0
 40
0.500000000000013
 50
180.0
 51
270.0
  0
LINE
  5
128
  8
VISIBLE
 10
164.6122296094458
 20
166.2202623069936
 30
0.0
 11
177.6122296094458
 21
166.2202623069936
 31
0.0
  0
ARC
  5
129
  8
VISIBLE
 10
177.6122296094458
 20
166.7202623069936
 30
0.0
 40
0.5
 50
270.0
 51
0.0
  0
LINE
  5
12A
  8
VISIBLE
 10
178.1122296094458
 20
179.7202623069936
 30
0.0
 11
178.1122296094458
 21
166.7202623069936
 31
0.0
  0
ARC
  5
12B
  8
VISIBLE
 10
177.6122296094458
 20
179.7202623069936
 30
0.0
 40
0.5
 50
0.0
 51
90.0
  0
LINE
  5
12C
  8
VISIBLE
 10
164.6122296094458
 20
180.2202623069936
 30
0.0
 11
177.6122296094458
 21
180.2202623069936
 31
0.0
  0
ARC
  5
12D
  8
VISIBLE
 10
164.6122296094458
 20
179.7202623069936
 30
0.0
 40
0.500000000000013
 50
90.0
 51
180.0
  0
ARC
  5
12E
  8
VISIBLE
 10
183.6622296094459
 20
166.7202623069936
 30
0.0
 40
0.5
 50
180.0
 51
270.0
  0
LINE
  5
12F
  8
VISIBLE
 10
183.6622296094459
 20
166.2202623069936
 30
0.0
 11
196.6622296094458
 21
166.2202623069936
 31
0.0
  0
ARC
  5
130
  8
VISIBLE
 10
196.6622296094458
 20
166.7202623069936
 30
0.0
 40
0.5
 50
270.0
 51
0.0
  0
LINE
  5
131
  8
VISIBLE
 10
197.1622296094458
 20
179.7202623069936
 30
0.0
 11
197.1622296094458
 21
166.7202623069936
 31
0.0
  0
ARC
  5
132
  8
VISIBLE
 10
196.6622296094458
 20
179.7202623069936
 30
0.0
 40
0.5
 50
0.0
 51
90.0
  0
LINE
  5
133
  8
VISIBLE
 10
183.6622296094459
 20
180.2202623069936
 30
0.0
 11
196.6622296094458
 21
180.2202623069936
 31
0.0
  0
ARC
  5
134
  8
VISIBLE
 10
183.6622296094459
 20
179.7202623069936
 30
0.0
 40
0.5
 50
90.0
 51
180.0
  0
ARC
  5
135
  8
VISIBLE
 10
202.7122296094458
 20
166.7202623069936
 30
0.0
 40
0.5
 50
180.0
 51
270.0
  0
LINE
  5
136
  8
VISIBLE
 10
202.7122296094458
 20
166.2202623069936
 30
0.0
 11
215.7122296094458
 21
166.2202623069936
 31
0.0
  0
ARC
  5
137
  8
VISIBLE
 10
215.7122296094458
 20
166.7202623069936
 30
0.0
 40
0.5
 50
270.0
 51
0.0
  0
LINE
  5
138
  8
VISIBLE
 10
216.2122296094458
 20
179.7202623069936
 30
0.0
 11
216.2122296094458
 21
166.7202623069936
 31
0.0
  0
ARC
  5
139
  8
VISIBLE
 10
215.7122296094458
 20
179.7202623069936
 30
0.0
 40
0.5
 50
0.0
 51
90.0
  0
LINE
  5
13A
  8
VISIBLE
 10
202.7122296094458
 20
180.2202623069936
 30
0.0
 11
215.7122296094458
 21
180.2202623069936
 31
0.0
  0
ARC
  5
13B
  8
VISIBLE
 10
202.7122296094458
 20
179.7202623069936
 30
0.0
 40
0.5
 50
90.0
 51
180.0
  0
ARC
  5
13C
  8
VISIBLE
 10
221.7622296094459
 20
166.7202623069936
 30
0.0
 40
0.5
 50
180.0
 51
270.0
  0
LINE
  5
13D
  8
VISIBLE
 10
221.7622296094459
 20
166.2202623069936
 30
0.0
 11
234.7622296094459
 21
166.2202623069936
 31
0.0
  0
ARC
  5
13E
  8
VISIBLE
 10
234.7622296094459
 20
166.7202623069936
 30
0.0
 40
0.4999999999999941
 50
270.0
 51
0.0
  0
LINE
  5
13F
  8
VISIBLE
 10
235.2622296094459
 20
179.7202623069936
 30
0.0
 11
235.2622296094459
 21
166.7202623069936
 31
0.0
  0
ARC
  5
140
  8
VISIBLE
 10
234.7622296094459
 20
179.7202623069936
 30
0.0
 40
0.5
 50
0.0
 51
90.0
  0
LINE
  5
141
  8
VISIBLE
 10
221.7622296094459
 20
180.2202623069936
 30
0.0
 11
234.7622296094459
 21
180.2202623069936
 31
0.0
  0
ARC
  5
142
  8
VISIBLE
 10
221.7622296094459
 20
179.7202623069936
 30
0.0
 40
0.5
 50
90.0
 51
180.0
  0
ARC
  5
143
  8
VISIBLE
 10
240.8122296094459
 20
166.7202623069936
 30
0.0
 40
0.5
 50
180.0
 51
270.0
  0
LINE
  5
144
  8
VISIBLE
 10
240.8122296094459
 20
166.2202623069936
 30
0.0
 11
253.8122296094459
 21
166.2202623069936
 31
0.0
  0
ARC
  5
145
  8
VISIBLE
 10
253.8122296094459
 20
166.7202623069936
 30
0.0
 40
0.5
 50
270.0
 51
0.0
  0
LINE
  5
146
  8
VISIBLE
 10
254.3122296094459
 20
179.7202623069936
 30
0.0
 11
254.3122296094459
 21
166.7202623069936
 31
0.0
  0
ARC
  5
147
  8
VISIBLE
 10
253.8122296094459
 20
179.7202623069936
 30
0.0
 40
0.5
 50
0.0
 51
90.0
  0
LINE
  5
148
  8
VISIBLE
 10
240.8122296094459
 20
180.2202623069936
 30
0.0
 11
253.8122296094459
 21
180.2202623069936
 31
0.0
  0
ARC
  5
149
  8
VISIBLE
 10
240.8122296094459
 20
179.7202623069936
 30
0.0
 40
0.5
 50
90.0
 51
180.0
  0
ARC
  5
14A
  8
VISIBLE
 10
259.8622296094459
 20
166.7202623069936
 30
0.0
 40
0.5
 50
180.0
 51
270.0
  0
LINE
  5
14B
  8
VISIBLE
 10
259.8622296094459
 20
166.2202623069936
 30
0.0
 11
272.8622296094459
 21
166.2202623069936
 31
0.0
  0
ARC
  5
14C
  8
VISIBLE
 10
272.8622296094459
 20
166.7202623069936
 30
0.0
 40
0.5
 50
270.0
 51
0.0
  0
LINE
  5
14D
  8
VISIBLE
 10
273.3622296094459
 20
179.7202623069936
 30
0.0
 11
273.3622296094459
 21
166.7202623069936
 31
0.0
  0
ARC
  5
14E
  8
VISIBLE
 10
272.8622296094459
 20
179.7202623069936
 30
0.0
 40
0.5
 50
0.0
 51
90.0
  0
LINE
  5
14F
  8
VISIBLE
 10
259.8622296094459
 20
180.2202623069936
 30
0.0
 11
272.8622296094459
 21
180.2202623069936
 31
0.0
  0
ARC
  5
150
  8
VISIBLE
 10
259.8622296094459
 20
179.7202623069936
 30
0.0
 40
0.5
 50
90.0
 51
180.0
  0
ARC
  5
151
  8
VISIBLE
 10
278.9122296094458
 20
166.7202623069936
 30
0.0
 40
0.5
 50
180.0
 51
270.0
  0
LINE
  5
152
  8
VISIBLE
 10
278.9122296094458
 20
166.2202623069936
 30
0.0
 11
291.9122296094458
 21
166.2202623069936
 31
0.0
  0
ARC
  5
153
  8
VISIBLE
 10
291.9122296094458
 20
166.7202623069936
 30
0.0
 40
0.5
 50
270.0
 51
0.0
  0
LINE
  5
154
  8
VISIBLE
 10
292.4122296094458
 20
179.7202623069936
 30
0.0
 11
292.4122296094458
 21
166.7202623069936
 31
0.0
  0
ARC
  5
155
  8
VISIBLE
 10
291.9122296094458
 20
179.7202623069936
 30
0.0
 40
0.5
 50
0.0
 51
90.0
  0
LINE
  5
156
  8
VISIBLE
 10
278.9122296094458
 20
180.2202623069936
 30
0.0
 11
291.9122296094458
 21
180.2202623069936
 31
0.0
  0
ARC
  5
157
  8
VISIBLE
 10
278.9122296094458
 20
179.7202623069936
 30
0.0
 40
0.5
 50
90.0
 51
180.0
  0
ARC
  5
158
  8
VISIBLE
 10
297.9622296094458
 20
166.7202623069936
 30
0.0
 40
0.5
 50
180.0
 51
270.0
  0
LINE
  5
159
  8
VISIBLE
 10
297.9622296094458
 20
166.2202623069936
 30
0.0
 11
310.9622296094458
 21
166.2202623069936
 31
0.0
  0
ARC
  5
15A
  8
VISIBLE
 10
310.9622296094458
 20
166.7202623069936
 30
0.0
 40
0.5
 50
270.0
 51
0.0
  0
LINE
  5
15B
  8
VISIBLE
 10
311.4622296094458
 20
179.7202623069936
 30
0.0
 11
311.4622296094458
 21
166.7202623069936
 31
0.0
  0
ARC
  5
15C
  8
VISIBLE
 10
310.9622296094458
 20
179.7202623069936
 30
0.0
 40
0.5
 50
0.0
 51
90.0
  0
LINE
  5
15D
  8
VISIBLE
 10
297.9622296094458
 20
180.2202623069936
 30
0.0
 11
310.9622296094458
 21
180.2202623069936
 31
0.0
  0
ARC
  5
15E
  8
VISIBLE
 10
297.9622296094458
 20
179.7202623069936
 30
0.0
 40
0.5
 50
90.0
 51
180.0
  0
ARC
  5
15F
  8
VISIBLE
 10
317.0122296094459
 20
166.7202623069936
 30
0.0
 40
0.4999999999999941
 50
180.0
 51
270.0
  0
LINE
  5
160
  8
VISIBLE
 10
317.0122296094459
 20
166.2202623069936
 30
0.0
 11
330.0122296094459
 21
166.2202623069936
 31
0.0
  0
ARC
  5
161
  8
VISIBLE
 10
330.0122296094459
 20
166.7202623069936
 30
0.0
 40
0.5
 50
270.0
 51
0.0
  0
LINE
  5
162
  8
VISIBLE
 10
330.5122296094459
 20
179.7202623069936
 30
0.0
 11
330.5122296094459
 21
166.7202623069936
 31
0.0
  0
ARC
  5
163
  8
VISIBLE
 10
330.0122296094459
 20
179.7202623069936
 30
0.0
 40
0.5
 50
0.0
 51
90.0
  0
LINE
  5
164
  8
VISIBLE
 10
317.0122296094459
 20
180.2202623069936
 30
0.0
 11
330.0122296094459
 21
180.2202623069936
 31
0.0
  0
ARC
  5
165
  8
VISIBLE
 10
317.0122296094459
 20
179.7202623069936
 30
0.0
 40
0.5
 50
90.0
 51
180.0
  0
ARC
  5
166
  8
VISIBLE
 10
336.0622296094459
 20
166.7202623069936
 30
0.0
 40
0.4999999999999941
 50
180.0
 51
270.0
  0
LINE
  5
167
  8
VISIBLE
 10
336.0622296094459
 20
166.2202623069936
 30
0.0
 11
349.0622296094459
 21
166.2202623069936
 31
0.0
  0
ARC
  5
168
  8
VISIBLE
 10
349.0622296094459
 20
166.7202623069936
 30
0.0
 40
0.5
 50
270.0
 51
0.0
  0
LINE
  5
169
  8
VISIBLE
 10
349.5622296094459
 20
179.7202623069936
 30
0.0
 11
349.5622296094459
 21
166.7202623069936
 31
0.0
  0
ARC
  5
16A
  8
VISIBLE
 10
349.0622296094459
 20
179.7202623069936
 30
0.0
 40
0.5
 50
0.0
 51
90.0
  0
LINE
  5
16B
  8
VISIBLE
 10
336.0622296094459
 20
180.2202623069936
 30
0.0
 11
349.0622296094459
 21
180.2202623069936
 31
0.0
  0
ARC
  5
16C
  8
VISIBLE
 10
336.0622296094459
 20
179.7202623069936
 30
0.0
 40
0.5
 50
90.0
 51
180.0
  0
ARC
  5
16D
  8
VISIBLE
 10
355.1122296094459
 20
166.7202623069936
 30
0.0
 40
0.5
 50
180.0
 51
270.0
  0
LINE
  5
16E
  8
VISIBLE
 10
355.1122296094459
 20
166.2202623069936
 30
0.0
 11
368.1122296094459
 21
166.2202623069936
 31
0.0
  0
ARC
  5
16F
  8
VISIBLE
 10
368.1122296094459
 20
166.7202623069936
 30
0.0
 40
0.5
 50
270.0
 51
0.0
  0
LINE
  5
170
  8
VISIBLE
 10
368.6122296094459
 20
179.7202623069936
 30
0.0
 11
368.6122296094459
 21
166.7202623069936
 31
0.0
  0
ARC
  5
171
  8
VISIBLE
 10
368.1122296094459
 20
179.7202623069936
 30
0.0
 40
0.5
 50
0.0
 51
90.0
  0
LINE
  5
172
  8
VISIBLE
 10
355.1122296094459
 20
180.2202623069936
 30
0.0
 11
368.1122296094459
 21
180.2202623069936
 31
0.0
  0
ARC
  5
173
  8
VISIBLE
 10
355.1122296094459
 20
179.7202623069936
 30
0.0
 40
0.5
 50
90.0
 51
180.0
  0
ARC
  5
174
  8
VISIBLE
 10
374.1622296094458
 20
166.7202623069936
 30
0.0
 40
0.5
 50
180.0
 51
270.0
  0
LINE
  5
175
  8
VISIBLE
 10
374.1622296094458
 20
166.2202623069936
 30
0.0
 11
387.1622296094458
 21
166.2202623069936
 31
0.0
  0
ARC
  5
176
  8
VISIBLE
 10
387.1622296094458
 20
166.7202623069936
 30
0.0
 40
0.500000000000013
 50
270.0
 51
0.0
  0
LINE
  5
177
  8
VISIBLE
 10
387.6622296094458
 20
179.7202623069936
 30
0.0
 11
387.6622296094458
 21
166.7202623069936
 31
0.0
  0
ARC
  5
178
  8
VISIBLE
 10
387.1622296094458
 20
179.7202623069936
 30
0.0
 40
0.500000000000013
 50
0.0
 51
90.0
  0
LINE
  5
179
  8
VISIBLE
 10
374.1622296094458
 20
180.2202623069936
 30
0.0
 11
387.1622296094458
 21
180.2202623069936
 31
0.0
  0
ARC
  5
17A
  8
VISIBLE
 10
374.1622296094458
 20
179.7202623069936
 30
0.0
 40
0.5
 50
90.0
 51
180.0
  0
ARC
  5
17B
  8
VISIBLE
 10
397.9747296094458
 20
166.7202623069936
 30
0.0
 40
0.499999999999988
 50
180.0
 51
270.0
  0
LINE
  5
17C
  8
VISIBLE
 10
397.9747296094458
 20
166.2202623069936
 30
0.0
 11
410.9747296094458
 21
166.2202623069936
 31
0.0
  0
ARC
  5
17D
  8
VISIBLE
 10
410.9747296094458
 20
166.7202623069936
 30
0.0
 40
0.5
 50
270.0
 51
0.0
  0
LINE
  5
17E
  8
VISIBLE
 10
411.4747296094458
 20
179.7202623069936
 30
0.0
 11
411.4747296094458
 21
166.7202623069936
 31
0.0
  0
ARC
  5
17F
  8
VISIBLE
 10
410.9747296094458
 20
179.7202623069936
 30
0.0
 40
0.5
 50
0.0
 51
90.0
  0
LINE
  5
180
  8
VISIBLE
 10
397.9747296094458
 20
180.2202623069936
 30
0.0
 11
410.9747296094458
 21
180.2202623069936
 31
0.0
  0
ARC
  5
181
  8
VISIBLE
 10
397.9747296094458
 20
179.7202623069936
 30
0.0
 40
0.499999999999988
 50
90.0
 51
180.0
  0
ARC
  5
182
  8
VISIBLE
 10
169.3747296094459
 20
147.6702623069936
 30
0.0
 40
0.5
 50
180.0
 51
270.0
  0
LINE
  5
183
  8
VISIBLE
 10
169.3747296094459
 20
147.1702623069936
 30
0.0
 11
182.3747296094459
 21
147.1702623069936
 31
0.0
  0
ARC
  5
184
  8
VISIBLE
 10
182.3747296094459
 20
147.6702623069936
 30
0.0
 40
0.5
 50
270.0
 51
0.0
  0
LINE
  5
185
  8
VISIBLE
 10
182.8747296094459
 20
160.6702623069936
 30
0.0
 11
182.8747296094459
 21
147.6702623069936
 31
0.0
  0
ARC
  5
186
  8
VISIBLE
 10
182.3747296094459
 20
160.6702623069936
 30
0.0
 40
0.5
 50
0.0
 51
90.0
  0
LINE
  5
187
  8
VISIBLE
 10
169.3747296094459
 20
161.1702623069936
 30
0.0
 11
182.3747296094459
 21
161.1702623069936
 31
0.0
  0
ARC
  5
188
  8
VISIBLE
 10
169.3747296094459
 20
160.6702623069936
 30
0.0
 40
0.5
 50
90.0
 51
180.0
  0
ARC
  5
189
  8
VISIBLE
 10
188.4247296094458
 20
147.6702623069936
 30
0.0
 40
0.500000000000012
 50
180.0
 51
270.0
  0
LINE
  5
18A
  8
VISIBLE
 10
188.4247296094458
 20
147.1702623069936
 30
0.0
 11
201.4247296094458
 21
147.1702623069936
 31
0.0
  0
ARC
  5
18B
  8
VISIBLE
 10
201.4247296094458
 20
147.6702623069936
 30
0.0
 40
0.5
 50
270.0
 51
0.0
  0
LINE
  5
18C
  8
VISIBLE
 10
201.9247296094458
 20
160.6702623069936
 30
0.0
 11
201.9247296094458
 21
147.6702623069936
 31
0.0
  0
ARC
  5
18D
  8
VISIBLE
 10
201.4247296094458
 20
160.6702623069936
 30
0.0
 40
0.5
 50
0.0
 51
90.0
  0
LINE
  5
18E
  8
VISIBLE
 10
188.4247296094458
 20
161.1702623069936
 30
0.0
 11
201.4247296094458
 21
161.1702623069936
 31
0.0
  0
ARC
  5
18F
  8
VISIBLE
 10
188.4247296094458
 20
160.6702623069936
 30
0.0
 40
0.500000000000012
 50
90.0
 51
180.0
  0
ARC
  5
190
  8
VISIBLE
 10
207.4747296094459
 20
147.6702623069936
 30
0.0
 40
0.5
 50
180.0
 51
270.0
  0
LINE
  5
191
  8
VISIBLE
 10
207.4747296094459
 20
147.1702623069936
 30
0.0
 11
220.4747296094459
 21
147.1702623069936
 31
0.0
  0
ARC
  5
192
  8
VISIBLE
 10
220.4747296094459
 20
147.6702623069936
 30
0.0
 40
0.5
 50
270.0
 51
0.0
  0
LINE
  5
193
  8
VISIBLE
 10
220.9747296094459
 20
160.6702623069936
 30
0.0
 11
220.9747296094459
 21
147.6702623069936
 31
0.0
  0
ARC
  5
194
  8
VISIBLE
 10
220.4747296094459
 20
160.6702623069936
 30
0.0
 40
0.5
 50
0.0
 51
90.0
  0
LINE
  5
195
  8
VISIBLE
 10
207.4747296094459
 20
161.1702623069936
 30
0.0
 11
220.4747296094459
 21
161.1702623069936
 31
0.0
  0
ARC
  5
196
  8
VISIBLE
 10
207.4747296094459
 20
160.6702623069936
 30
0.0
 40
0.5
 50
90.0
 51
180.0
  0
ARC
  5
197
  8
VISIBLE
 10
226.5247296094458
 20
147.6702623069936
 30
0.0
 40
0.5
 50
180.0
 51
270.0
  0
LINE
  5
198
  8
VISIBLE
 10
226.5247296094458
 20
147.1702623069936
 30
0.0
 11
239.5247296094458
 21
147.1702623069936
 31
0.0
  0
ARC
  5
199
  8
VISIBLE
 10
239.5247296094458
 20
147.6702623069936
 30
0.0
 40
0.5
 50
270.0
 51
0.0
  0
LINE
  5
19A
  8
VISIBLE
 10
240.0247296094458
 20
160.6702623069936
 30
0.0
 11
240.0247296094458
 21
147.6702623069936
 31
0.0
  0
ARC
  5
19B
  8
VISIBLE
 10
239.5247296094458
 20
160.6702623069936
 30
0.0
 40
0.5
 50
0.0
 51
90.0
  0
LINE
  5
19C
  8
VISIBLE
 10
226.5247296094458
 20
161.1702623069936
 30
0.0
 11
239.5247296094458
 21
161.1702623069936
 31
0.0
  0
ARC
  5
19D
  8
VISIBLE
 10
226.5247296094458
 20
160.6702623069936
 30
0.0
 40
0.5
 50
90.0
 51
180.0
  0
ARC
  5
19E
  8
VISIBLE
 10
245.5747296094459
 20
147.6702623069936
 30
0.0
 40
0.5
 50
180.0
 51
270.0
  0
LINE
  5
19F
  8
VISIBLE
 10
245.5747296094459
 20
147.1702623069936
 30
0.0
 11
258.5747296094459
 21
147.1702623069936
 31
0.0
  0
ARC
  5
1A0
  8
VISIBLE
 10
258.5747296094459
 20
147.6702623069936
 30
0.0
 40
0.5
 50
270.0
 51
0.0
  0
LINE
  5
1A1
  8
VISIBLE
 10
259.0747296094459
 20
160.6702623069936
 30
0.0
 11
259.0747296094459
 21
147.6702623069936
 31
0.0
  0
ARC
  5
1A2
  8
VISIBLE
 10
258.5747296094459
 20
160.6702623069936
 30
0.0
 40
0.5
 50
0.0
 51
90.0
  0
LINE
  5
1A3
  8
VISIBLE
 10
245.5747296094459
 20
161.1702623069936
 30
0.0
 11
258.5747296094459
 21
161.1702623069936
 31
0.0
  0
ARC
  5
1A4
  8
VISIBLE
 10
245.5747296094459
 20
160.6702623069936
 30
0.0
 40
0.5
 50
90.0
 51
180.0
  0
ARC
  5
1A5
  8
VISIBLE
 10
264.6247296094459
 20
147.6702623069936
 30
0.0
 40
0.5
 50
180.0
 51
270.0
  0
LINE
  5
1A6
  8
VISIBLE
 10
264.6247296094459
 20
147.1702623069936
 30
0.0
 11
277.6247296094459
 21
147.1702623069936
 31
0.0
  0
ARC
  5
1A7
  8
VISIBLE
 10
277.6247296094459
 20
147.6702623069936
 30
0.0
 40
0.5
 50
270.0
 51
0.0
  0
LINE
  5
1A8
  8
VISIBLE
 10
278.1247296094459
 20
160.6702623069936
 30
0.0
 11
278.1247296094459
 21
147.6702623069936
 31
0.0
  0
ARC
  5
1A9
  8
VISIBLE
 10
277.6247296094459
 20
160.6702623069936
 30
0.0
 40
0.5
 50
0.0
 51
90.0
  0
LINE
  5
1AA
  8
VISIBLE
 10
264.6247296094459
 20
161.1702623069936
 30
0.0
 11
277.6247296094459
 21
161.1702623069936
 31
0.0
  0
ARC
  5
1AB
  8
VISIBLE
 10
264.6247296094459
 20
160.6702623069936
 30
0.0
 40
0.5
 50
90.0
 51
180.0
  0
ARC
  5
1AC
  8
VISIBLE
 10
283.6747296094459
 20
147.6702623069936
 30
0.0
 40
0.5
 50
180.0
 51
270.0
  0
LINE
  5
1AD
  8
VISIBLE
 10
283.6747296094459
 20
147.1702623069936
 30
0.0
 11
296.6747296094459
 21
147.1702623069936
 31
0.0
  0
ARC
  5
1AE
  8
VISIBLE
 10
296.6747296094459
 20
147.6702623069936
 30
0.0
 40
0.5
 50
270.0
 51
0.0
  0
LINE
  5
1AF
  8
VISIBLE
 10
297.1747296094459
 20
160.6702623069936
 30
0.0
 11
297.1747296094459
 21
147.6702623069936
 31
0.0
  0
ARC
  5
1B0
  8
VISIBLE
 10
296.6747296094459
 20
160.6702623069936
 30
0.0
 40
0.5
 50
0.0
 51
90.0
  0
LINE
  5
1B1
  8
VISIBLE
 10
283.6747296094459
 20
161.1702623069936
 30
0.0
 11
296.6747296094459
 21
161.1702623069936
 31
0.0
  0
ARC
  5
1B2
  8
VISIBLE
 10
283.6747296094459
 20
160.6702623069936
 30
0.0
 40
0.5
 50
90.0
 51
180.0
  0
ARC
  5
1B3
  8
VISIBLE
 10
302.7247296094458
 20
147.6702623069936
 30
0.0
 40
0.5
 50
180.0
 51
270.0
  0
LINE
  5
1B4
  8
VISIBLE
 10
302.7247296094458
 20
147.1702623069936
 30
0.0
 11
315.7247296094458
 21
147.1702623069936
 31
0.0
  0
ARC
  5
1B5
  8
VISIBLE
 10
315.7247296094458
 20
147.6702623069936
 30
0.0
 40
0.5
 50
270.0
 51
0.0
  0
LINE
  5
1B6
  8
VISIBLE
 10
316.2247296094458
 20
160.6702623069936
 30
0.0
 11
316.2247296094458
 21
147.6702623069936
 31
0.0
  0
ARC
  5
1B7
  8
VISIBLE
 10
315.7247296094458
 20
160.6702623069936
 30
0.0
 40
0.5
 50
0.0
 51
90.0
  0
LINE
  5
1B8
  8
VISIBLE
 10
302.7247296094458
 20
161.1702623069936
 30
0.0
 11
315.7247296094458
 21
161.1702623069936
 31
0.0
  0
ARC
  5
1B9
  8
VISIBLE
 10
302.7247296094458
 20
160.6702623069936
 30
0.0
 40
0.5
 50
90.0
 51
180.0
  0
ARC
  5
1BA
  8
VISIBLE
 10
321.7747296094458
 20
147.6702623069936
 30
0.0
 40
0.5
 50
180.0
 51
270.0
  0
LINE
  5
1BB
  8
VISIBLE
 10
321.7747296094458
 20
147.1702623069936
 30
0.0
 11
334.7747296094458
 21
147.1702623069936
 31
0.0
  0
ARC
  5
1BC
  8
VISIBLE
 10
334.7747296094458
 20
147.6702623069936
 30
0.0
 40
0.5
 50
270.0
 51
0.0
  0
LINE
  5
1BD
  8
VISIBLE
 10
335.2747296094458
 20
160.6702623069936
 30
0.0
 11
335.2747296094458
 21
147.6702623069936
 31
0.0
  0
ARC
  5
1BE
  8
VISIBLE
 10
334.7747296094458
 20
160.6702623069936
 30
0.0
 40
0.5
 50
0.0
 51
90.0
  0
LINE
  5
1BF
  8
VISIBLE
 10
321.7747296094458
 20
161.1702623069936
 30
0.0
 11
334.7747296094458
 21
161.1702623069936
 31
0.0
  0
ARC
  5
1C0
  8
VISIBLE
 10
321.7747296094458
 20
160.6702623069936
 30
0.0
 40
0.5
 50
90.0
 51
180.0
  0
ARC
  5
1C1
  8
VISIBLE
 10
340.8247296094459
 20
147.6702623069936
 30
0.0
 40
0.5
 50
180.0
 51
270.0
  0
LINE
  5
1C2
  8
VISIBLE
 10
340.8247296094459
 20
147.1702623069936
 30
0.0
 11
353.8247296094459
 21
147.1702623069936
 31
0.0
  0
ARC
  5
1C3
  8
VISIBLE
 10
353.8247296094459
 20
147.6702623069936
 30
0.0
 40
0.5
 50
270.0
 51
0.0
  0
LINE
  5
1C4
  8
VISIBLE
 10
354.3247296094459
 20
160.6702623069936
 30
0.0
 11
354.3247296094459
 21
147.6702623069936
 31
0.0
  0
ARC
  5
1C5
  8
VISIBLE
 10
353.8247296094459
 20
160.6702623069936
 30
0.0
 40
0.5
 50
0.0
 51
90.0
  0
LINE
  5
1C6
  8
VISIBLE
 10
340.8247296094459
 20
161.1702623069936
 30
0.0
 11
353.8247296094459
 21
161.1702623069936
 31
0.0
  0
ARC
  5
1C7
  8
VISIBLE
 10
340.8247296094459
 20
160.6702623069936
 30
0.0
 40
0.5
 50
90.0
 51
180.0
  0
ARC
  5
1C8
  8
VISIBLE
 10
359.8747296094459
 20
147.6702623069936
 30
0.0
 40
0.5
 50
180.0
 51
270.0
  0
LINE
  5
1C9
  8
VISIBLE
 10
359.8747296094459
 20
147.1702623069936
 30
0.0
 11
372.8747296094459
 21
147.1702623069936
 31
0.0
  0
ARC
  5
1CA
  8
VISIBLE
 10
372.8747296094459
 20
147.6702623069936
 30
0.0
 40
0.5
 50
270.0
 51
0.0
  0
LINE
  5
1CB
  8
VISIBLE
 10
373.3747296094459
 20
160.6702623069936
 30
0.0
 11
373.3747296094459
 21
147.6702623069936
 31
0.0
  0
ARC
  5
1CC
  8
VISIBLE
 10
372.8747296094459
 20
160.6702623069936
 30
0.0
 40
0.5
 50
0.0
 51
90.0
  0
LINE
  5
1CD
  8
VISIBLE
 10
359.8747296094459
 20
161.1702623069936
 30
0.0
 11
372.8747296094459
 21
161.1702623069936
 31
0.0
  0
ARC
  5
1CE
  8
VISIBLE
 10
359.8747296094459
 20
160.6702623069936
 30
0.0
 40
0.5
 50
90.0
 51
180.0
  0
ARC
  5
1CF
  8
VISIBLE
 10
163.3814796094458
 20
126.6202623069936
 30
0.0
 40
0.5
 50
180.0
 51
270.0
  0
LINE
  5
1D0
  8
VISIBLE
 10
163.3814796094458
 20
126.1202623069936
 30
0.0
 11
169.3814796094459
 21
126.1202623069936
 31
0.0
  0
ARC
  5
1D1
  8
VISIBLE
 10
169.3814796094459
 20
126.6202623069936
 30
0.0
 40
0.5
 50
270.0
 51
0.0
  0
LINE
  5
1D2
  8
VISIBLE
 10
169.8814796094459
 20
141.6202623069936
 30
0.0
 11
169.8814796094459
 21
126.6202623069936
 31
0.0
  0
LINE
  5
1D3
  8
VISIBLE
 10
139.5054796094459
 20
142.1202623069936
 30
0.0
 11
169.3814796094459
 21
142.1202623069936
 31
0.0
  0
LINE
  5
1D4
  8
VISIBLE
 10
139.0054796094459
 20
141.6202623069936
 30
0.0
 11
139.0054796094459
 21
126.6202623069936
 31
0.0
  0
ARC
  5
1D5
  8
VISIBLE
 10
139.5054796094459
 20
126.6202623069936
 30
0.0
 40
0.5
 50
180.0
 51
270.0
  0
LINE
  5
1D6
  8
VISIBLE
 10
139.5054796094459
 20
126.1202623069936
 30
0.0
 11
145.5054796094459
 21
126.1202623069936
 31
0.0
  0
ARC
  5
1D7
  8
VISIBLE
 10
145.5054796094459
 20
126.6202623069936
 30
0.0
 40
0.5
 50
270.0
 51
0.0
  0
LINE
  5
1D8
  8
VISIBLE
 10
146.0054796094459
 20
127.6202623069936
 30
0.0
 11
146.0054796094459
 21
126.6202623069936
 31
0.0
  0
LINE
  5
1D9
  8
VISIBLE
 10
146.5054796094459
 20
128.1202623069936
 30
0.0
 11
162.3814796094458
 21
128.1202623069936
 31
0.0
  0
ARC
  5
1DA
  8
VISIBLE
 10
178.8997296094458
 20
128.6202623069936
 30
0.0
 40
0.500000000000013
 50
180.0
 51
270.0
  0
LINE
  5
1DB
  8
VISIBLE
 10
178.8997296094458
 20
128.1202623069936
 30
0.0
 11
191.8997296094458
 21
128.1202623069936
 31
0.0
  0
ARC
  5
1DC
  8
VISIBLE
 10
191.8997296094458
 20
128.6202623069936
 30
0.0
 40
0.5
 50
270.0
 51
0.0
  0
LINE
  5
1DD
  8
VISIBLE
 10
192.3997296094458
 20
141.6202623069936
 30
0.0
 11
192.3997296094458
 21
128.6202623069936
 31
0.0
  0
ARC
  5
1DE
  8
VISIBLE
 10
191.8997296094458
 20
141.6202623069936
 30
0.0
 40
0.5
 50
0.0
 51
90.0
  0
LINE
  5
1DF
  8
VISIBLE
 10
178.8997296094458
 20
142.1202623069936
 30
0.0
 11
191.8997296094458
 21
142.1202623069936
 31
0.0
  0
ARC
  5
1E0
  8
VISIBLE
 10
178.8997296094458
 20
141.6202623069936
 30
0.0
 40
0.500000000000013
 50
90.0
 51
180.0
  0
ARC
  5
1E1
  8
VISIBLE
 10
197.9497296094459
 20
128.6202623069936
 30
0.0
 40
0.5
 50
180.0
 51
270.0
  0
LINE
  5
1E2
  8
VISIBLE
 10
197.9497296094459
 20
128.1202623069936
 30
0.0
 11
210.9497296094459
 21
128.1202623069936
 31
0.0
  0
ARC
  5
1E3
  8
VISIBLE
 10
210.9497296094459
 20
128.6202623069936
 30
0.0
 40
0.5
 50
270.0
 51
0.0
  0
LINE
  5
1E4
  8
VISIBLE
 10
211.4497296094459
 20
141.6202623069936
 30
0.0
 11
211.4497296094459
 21
128.6202623069936
 31
0.0
  0
ARC
  5
1E5
  8
VISIBLE
 10
210.9497296094459
 20
141.6202623069936
 30
0.0
 40
0.5
 50
0.0
 51
90.0
  0
LINE
  5
1E6
  8
VISIBLE
 10
197.9497296094459
 20
142.1202623069936
 30
0.0
 11
210.9497296094459
 21
142.1202623069936
 31
0.0
  0
ARC
  5
1E7
  8
VISIBLE
 10
197.9497296094459
 20
141.6202623069936
 30
0.0
 40
0.5
 50
90.0
 51
180.0
  0
ARC
  5
1E8
  8
VISIBLE
 10
216.9997296094459
 20
128.6202623069936
 30
0.0
 40
0.500000000000006
 50
180.0
 51
270.0
  0
LINE
  5
1E9
  8
VISIBLE
 10
216.9997296094459
 20
128.1202623069936
 30
0.0
 11
229.9997296094459
 21
128.1202623069936
 31
0.0
  0
ARC
  5
1EA
  8
VISIBLE
 10
229.9997296094459
 20
128.6202623069936
 30
0.0
 40
0.5
 50
270.0
 51
0.0
  0
LINE
  5
1EB
  8
VISIBLE
 10
230.4997296094459
 20
141.6202623069936
 30
0.0
 11
230.4997296094459
 21
128.6202623069936
 31
0.0
  0
ARC
  5
1EC
  8
VISIBLE
 10
229.9997296094459
 20
141.6202623069936
 30
0.0
 40
0.5
 50
0.0
 51
90.0
  0
LINE
  5
1ED
  8
VISIBLE
 10
216.9997296094459
 20
142.1202623069936
 30
0.0
 11
229.9997296094459
 21
142.1202623069936
 31
0.0
  0
ARC
  5
1EE
  8
VISIBLE
 10
216.9997296094459
 20
141.6202623069936
 30
0.0
 40
0.5000000000000071
 50
90.0
 51
180.0
  0
ARC
  5
1EF
  8
VISIBLE
 10
236.0497296094458
 20
128.6202623069936
 30
0.0
 40
0.5
 50
180.0
 51
270.0
  0
LINE
  5
1F0
  8
VISIBLE
 10
236.0497296094458
 20
128.1202623069936
 30
0.0
 11
249.0497296094458
 21
128.1202623069936
 31
0.0
  0
ARC
  5
1F1
  8
VISIBLE
 10
249.0497296094458
 20
128.6202623069936
 30
0.0
 40
0.5
 50
270.0
 51
0.0
  0
LINE
  5
1F2
  8
VISIBLE
 10
249.5497296094458
 20
141.6202623069936
 30
0.0
 11
249.5497296094458
 21
128.6202623069936
 31
0.0
  0
ARC
  5
1F3
  8
VISIBLE
 10
249.0497296094458
 20
141.6202623069936
 30
0.0
 40
0.5
 50
0.0
 51
90.0
  0
LINE
  5
1F4
  8
VISIBLE
 10
236.0497296094458
 20
142.1202623069936
 30
0.0
 11
249.0497296094458
 21
142.1202623069936
 31
0.0
  0
ARC
  5
1F5
  8
VISIBLE
 10
236.0497296094458
 20
141.6202623069936
 30
0.0
 40
0.5
 50
90.0
 51
180.0
  0
ARC
  5
1F6
  8
VISIBLE
 10
255.0997296094459
 20
128.6202623069936
 30
0.0
 40
0.5
 50
180.0
 51
270.0
  0
LINE
  5
1F7
  8
VISIBLE
 10
255.0997296094459
 20
128.1202623069936
 30
0.0
 11
268.0997296094458
 21
128.1202623069936
 31
0.0
  0
ARC
  5
1F8
  8
VISIBLE
 10
268.0997296094458
 20
128.6202623069936
 30
0.0
 40
0.5
 50
270.0
 51
0.0
  0
LINE
  5
1F9
  8
VISIBLE
 10
268.5997296094458
 20
141.6202623069936
 30
0.0
 11
268.5997296094458
 21
128.6202623069936
 31
0.0
  0
ARC
  5
1FA
  8
VISIBLE
 10
268.0997296094458
 20
141.6202623069936
 30
0.0
 40
0.5
 50
0.0
 51
90.0
  0
LINE
  5
1FB
  8
VISIBLE
 10
255.0997296094459
 20
142.1202623069936
 30
0.0
 11
268.0997296094458
 21
142.1202623069936
 31
0.0
  0
ARC
  5
1FC
  8
VISIBLE
 10
255.0997296094459
 20
141.6202623069936
 30
0.0
 40
0.5
 50
90.0
 51
180.0
  0
ARC
  5
1FD
  8
VISIBLE
 10
274.1497296094458
 20
128.6202623069936
 30
0.0
 40
0.5
 50
180.0
 51
270.0
  0
LINE
  5
1FE
  8
VISIBLE
 10
274.1497296094458
 20
128.1202623069936
 30
0.0
 11
287.1497296094458
 21
128.1202623069936
 31
0.0
  0
ARC
  5
1FF
  8
VISIBLE
 10
287.1497296094458
 20
128.6202623069936
 30
0.0
 40
0.5
 50
270.0
 51
0.0
  0
LINE
  5
200
  8
VISIBLE
 10
287.6497296094458
 20
141.6202623069936
 30
0.0
 11
287.6497296094458
 21
128.6202623069936
 31
0.0
  0
ARC
  5
201
  8
VISIBLE
 10
287.1497296094458
 20
141.6202623069936
 30
0.0
 40
0.5
 50
0.0
 51
90.0
  0
LINE
  5
202
  8
VISIBLE
 10
274.1497296094458
 20
142.1202623069936
 30
0.0
 11
287.1497296094458
 21
142.1202623069936
 31
0.0
  0
ARC
  5
203
  8
VISIBLE
 10
274.1497296094458
 20
141.6202623069936
 30
0.0
 40
0.5
 50
90.0
 51
180.0
  0
ARC
  5
204
  8
VISIBLE
 10
293.1997296094459
 20
128.6202623069936
 30
0.0
 40
0.5
 50
180.0
 51
270.0
  0
LINE
  5
205
  8
VISIBLE
 10
293.1997296094459
 20
128.1202623069936
 30
0.0
 11
306.1997296094459
 21
128.1202623069936
 31
0.0
  0
ARC
  5
206
  8
VISIBLE
 10
306.1997296094459
 20
128.6202623069936
 30
0.0
 40
0.5
 50
270.0
 51
0.0
  0
LINE
  5
207
  8
VISIBLE
 10
306.6997296094459
 20
141.6202623069936
 30
0.0
 11
306.6997296094459
 21
128.6202623069936
 31
0.0
  0
ARC
  5
208
  8
VISIBLE
 10
306.1997296094459
 20
141.6202623069936
 30
0.0
 40
0.5
 50
0.0
 51
90.0
  0
LINE
  5
209
  8
VISIBLE
 10
293.1997296094459
 20
142.1202623069936
 30
0.0
 11
306.1997296094459
 21
142.1202623069936
 31
0.0
  0
ARC
  5
20A
  8
VISIBLE
 10
293.1997296094459
 20
141.6202623069936
 30
0.0
 40
0.5
 50
90.0
 51
180.0
  0
ARC
  5
20B
  8
VISIBLE
 10
312.2497296094459
 20
128.6202623069936
 30
0.0
 40
0.5
 50
180.0
 51
270.0
  0
LINE
  5
20C
  8
VISIBLE
 10
312.2497296094459
 20
128.1202623069936
 30
0.0
 11
325.2497296094459
 21
128.1202623069936
 31
0.0
  0
ARC
  5
20D
  8
VISIBLE
 10
325.2497296094459
 20
128.6202623069936
 30
0.0
 40
0.500000000000006
 50
270.0
 51
0.0
  0
LINE
  5
20E
  8
VISIBLE
 10
325.7497296094459
 20
141.6202623069936
 30
0.0
 11
325.7497296094459
 21
128.6202623069936
 31
0.0
  0
ARC
  5
20F
  8
VISIBLE
 10
325.2497296094459
 20
141.6202623069936
 30
0.0
 40
0.5000000000000071
 50
0.0
 51
90.0
  0
LINE
  5
210
  8
VISIBLE
 10
312.2497296094459
 20
142.1202623069936
 30
0.0
 11
325.2497296094459
 21
142.1202623069936
 31
0.0
  0
ARC
  5
211
  8
VISIBLE
 10
312.2497296094459
 20
141.6202623069936
 30
0.0
 40
0.5
 50
90.0
 51
180.0
  0
ARC
  5
212
  8
VISIBLE
 10
331.2997296094459
 20
128.6202623069936
 30
0.0
 40
0.5
 50
180.0
 51
270.0
  0
LINE
  5
213
  8
VISIBLE
 10
331.2997296094459
 20
128.1202623069936
 30
0.0
 11
344.2997296094459
 21
128.1202623069936
 31
0.0
  0
ARC
  5
214
  8
VISIBLE
 10
344.2997296094459
 20
128.6202623069936
 30
0.0
 40
0.5
 50
270.0
 51
0.0
  0
LINE
  5
215
  8
VISIBLE
 10
344.7997296094459
 20
141.6202623069936
 30
0.0
 11
344.7997296094459
 21
128.6202623069936
 31
0.0
  0
ARC
  5
216
  8
VISIBLE
 10
344.2997296094459
 20
141.6202623069936
 30
0.0
 40
0.5
 50
0.0
 51
90.0
  0
LINE
  5
217
  8
VISIBLE
 10
331.2997296094459
 20
142.1202623069936
 30
0.0
 11
344.2997296094459
 21
142.1202623069936
 31
0.0
  0
ARC
  5
218
  8
VISIBLE
 10
331.2997296094459
 20
141.6202623069936
 30
0.0
 40
0.5
 50
90.0
 51
180.0
  0
ARC
  5
219
  8
VISIBLE
 10
350.3497296094458
 20
128.6202623069936
 30
0.0
 40
0.5
 50
180.0
 51
270.0
  0
LINE
  5
21A
  8
VISIBLE
 10
350.3497296094458
 20
128.1202623069936
 30
0.0
 11
363.3497296094458
 21
128.1202623069936
 31
0.0
  0
ARC
  5
21B
  8
VISIBLE
 10
363.3497296094458
 20
128.6202623069936
 30
0.0
 40
0.500000000000013
 50
270.0
 51
0.0
  0
LINE
  5
21C
  8
VISIBLE
 10
363.8497296094458
 20
141.6202623069936
 30
0.0
 11
363.8497296094458
 21
128.6202623069936
 31
0.0
  0
ARC
  5
21D
  8
VISIBLE
 10
363.3497296094458
 20
141.6202623069936
 30
0.0
 40
0.500000000000013
 50
0.0
 51
90.0
  0
LINE
  5
21E
  8
VISIBLE
 10
350.3497296094458
 20
142.1202623069936
 30
0.0
 11
363.3497296094458
 21
142.1202623069936
 31
0.0
  0
ARC
  5
21F
  8
VISIBLE
 10
350.3497296094458
 20
141.6202623069936
 30
0.0
 40
0.5
 50
90.0
 51
180.0
  0
ARC
  5
220
  8
VISIBLE
 10
376.5434796094459
 20
128.6202623069936
 30
0.0
 40
0.5
 50
180.0
 51
270.0
  0
LINE
  5
221
  8
VISIBLE
 10
376.5434796094459
 20
128.1202623069936
 30
0.0
 11
389.5434796094459
 21
128.1202623069936
 31
0.0
  0
ARC
  5
222
  8
VISIBLE
 10
389.5434796094459
 20
128.6202623069936
 30
0.0
 40
0.500000000000013
 50
270.0
 51
0.0
  0
LINE
  5
223
  8
VISIBLE
 10
390.0434796094459
 20
141.6202623069936
 30
0.0
 11
390.0434796094459
 21
128.6202623069936
 31
0.0
  0
ARC
  5
224
  8
VISIBLE
 10
389.5434796094459
 20
141.6202623069936
 30
0.0
 40
0.500000000000013
 50
0.0
 51
90.0
  0
LINE
  5
225
  8
VISIBLE
 10
376.5434796094459
 20
142.1202623069936
 30
0.0
 11
389.5434796094459
 21
142.1202623069936
 31
0.0
  0
ARC
  5
226
  8
VISIBLE
 10
376.5434796094459
 20
141.6202623069936
 30
0.0
 40
0.5
 50
90.0
 51
180.0
  0
ARC
  5
227
  8
VISIBLE
 10
402.7372296094459
 20
128.6202623069936
 30
0.0
 40
0.5
 50
180.0
 51
270.0
  0
LINE
  5
228
  8
VISIBLE
 10
402.7372296094459
 20
128.1202623069936
 30
0.0
 11
415.7372296094459
 21
128.1202623069936
 31
0.0
  0
ARC
  5
229
  8
VISIBLE
 10
415.7372296094459
 20
128.6202623069936
 30
0.0
 40
0.5
 50
270.0
 51
0.0
  0
LINE
  5
22A
  8
VISIBLE
 10
416.2372296094459
 20
141.6202623069936
 30
0.0
 11
416.2372296094459
 21
128.6202623069936
 31
0.0
  0
ARC
  5
22B
  8
VISIBLE
 10
415.7372296094459
 20
141.6202623069936
 30
0.0
 40
0.5
 50
0.0
 51
90.0
  0
LINE
  5
22C
  8
VISIBLE
 10
402.7372296094459
 20
142.1202623069936
 30
0.0
 11
415.7372296094459
 21
142.1202623069936
 31
0.0
  0
ARC
  5
22D
  8
VISIBLE
 10
402.7372296094459
 20
141.6202623069936
 30
0.0
 40
0.5
 50
90.0
 51
180.0
  0
ARC
  5
22E
  8
VISIBLE
 10
140.7997296094458
 20
109.5702623069936
 30
0.0
 40
0.5
 50
180.0
 51
270.0
  0
LINE
  5
22F
  8
VISIBLE
 10
140.7997296094458
 20
109.0702623069936
 30
0.0
 11
153.7997296094458
 21
109.0702623069936
 31
0.0
  0
ARC
  5
230
  8
VISIBLE
 10
153.7997296094458
 20
109.5702623069936
 30
0.0
 40
0.5
 50
270.0
 51
0.0
  0
LINE
  5
231
  8
VISIBLE
 10
154.2997296094458
 20
122.5702623069936
 30
0.0
 11
154.2997296094458
 21
109.5702623069936
 31
0.0
  0
ARC
  5
232
  8
VISIBLE
 10
153.7997296094458
 20
122.5702623069936
 30
0.0
 40
0.5
 50
0.0
 51
90.0
  0
LINE
  5
233
  8
VISIBLE
 10
140.7997296094458
 20
123.0702623069936
 30
0.0
 11
153.7997296094458
 21
123.0702623069936
 31
0.0
  0
ARC
  5
234
  8
VISIBLE
 10
140.7997296094458
 20
122.5702623069936
 30
0.0
 40
0.5
 50
90.0
 51
180.0
  0
ARC
  5
235
  8
VISIBLE
 10
164.6122296094458
 20
109.5702623069936
 30
0.0
 40
0.500000000000011
 50
180.0
 51
270.0
  0
LINE
  5
236
  8
VISIBLE
 10
164.6122296094458
 20
109.0702623069936
 30
0.0
 11
177.6122296094458
 21
109.0702623069936
 31
0.0
  0
ARC
  5
237
  8
VISIBLE
 10
177.6122296094458
 20
109.5702623069936
 30
0.0
 40
0.5
 50
270.0
 51
0.0
  0
LINE
  5
238
  8
VISIBLE
 10
178.1122296094458
 20
122.5702623069936
 30
0.0
 11
178.1122296094458
 21
109.5702623069936
 31
0.0
  0
ARC
  5
239
  8
VISIBLE
 10
177.6122296094458
 20
122.5702623069936
 30
0.0
 40
0.5
 50
0.0
 51
90.0
  0
LINE
  5
23A
  8
VISIBLE
 10
164.6122296094458
 20
123.0702623069936
 30
0.0
 11
177.6122296094458
 21
123.0702623069936
 31
0.0
  0
ARC
  5
23B
  8
VISIBLE
 10
164.6122296094458
 20
122.5702623069936
 30
0.0
 40
0.500000000000011
 50
90.0
 51
180.0
  0
ARC
  5
23C
  8
VISIBLE
 10
188.4247296094458
 20
109.5702623069936
 30
0.0
 40
0.500000000000011
 50
180.0
 51
270.0
  0
LINE
  5
23D
  8
VISIBLE
 10
188.4247296094458
 20
109.0702623069936
 30
0.0
 11
201.4247296094458
 21
109.0702623069936
 31
0.0
  0
ARC
  5
23E
  8
VISIBLE
 10
201.4247296094458
 20
109.5702623069936
 30
0.0
 40
0.5
 50
270.0
 51
0.0
  0
LINE
  5
23F
  8
VISIBLE
 10
201.9247296094458
 20
122.5702623069936
 30
0.0
 11
201.9247296094458
 21
109.5702623069936
 31
0.0
  0
ARC
  5
240
  8
VISIBLE
 10
201.4247296094458
 20
122.5702623069936
 30
0.0
 40
0.5
 50
0.0
 51
90.0
  0
LINE
  5
241
  8
VISIBLE
 10
188.4247296094458
 20
123.0702623069936
 30
0.0
 11
201.4247296094458
 21
123.0702623069936
 31
0.0
  0
ARC
  5
242
  8
VISIBLE
 10
188.4247296094458
 20
122.5702623069936
 30
0.0
 40
0.500000000000011
 50
90.0
 51
180.0
  0
ARC
  5
243
  8
VISIBLE
 10
269.3872296094459
 20
109.5702623069936
 30
0.0
 40
0.5
 50
180.0
 51
270.0
  0
LINE
  5
244
  8
VISIBLE
 10
269.3872296094459
 20
109.0702623069936
 30
0.0
 11
282.3872296094459
 21
109.0702623069936
 31
0.0
  0
ARC
  5
245
  8
VISIBLE
 10
282.3872296094459
 20
109.5702623069936
 30
0.0
 40
0.5
 50
270.0
 51
0.0
  0
LINE
  5
246
  8
VISIBLE
 10
282.8872296094459
 20
122.5702623069936
 30
0.0
 11
282.8872296094459
 21
109.5702623069936
 31
0.0
  0
ARC
  5
247
  8
VISIBLE
 10
282.3872296094459
 20
122.5702623069936
 30
0.0
 40
0.5
 50
0.0
 51
90.0
  0
LINE
  5
248
  8
VISIBLE
 10
269.3872296094459
 20
123.0702623069936
 30
0.0
 11
282.3872296094459
 21
123.0702623069936
 31
0.0
  0
ARC
  5
249
  8
VISIBLE
 10
269.3872296094459
 20
122.5702623069936
 30
0.0
 40
0.5
 50
90.0
 51
180.0
  0
ARC
  5
24A
  8
VISIBLE
 10
221.7372296094458
 20
124.5702623069936
 30
0.0
 40
0.5
 50
0.0
 51
90.0
  0
LINE
  5
24B
  8
VISIBLE
 10
221.7372296094458
 20
125.0702623069936
 30
0.0
 11
215.7372296094458
 21
125.0702623069936
 31
0.0
  0
ARC
  5
24C
  8
VISIBLE
 10
215.7372296094458
 20
124.5702623069936
 30
0.0
 40
0.5
 50
90.0
 51
180.0
  0
LINE
  5
24D
  8
VISIBLE
 10
215.2372296094458
 20
110.5702623069936
 30
0.0
 11
215.2372296094458
 21
124.5702623069936
 31
0.0
  0
ARC
  5
24E
  8
VISIBLE
 10
215.7372296094458
 20
110.5702623069936
 30
0.0
 40
0.5000000000000071
 50
180.0
 51
270.0
  0
LINE
  5
24F
  8
VISIBLE
 10
221.7372296094458
 20
110.0702623069936
 30
0.0
 11
215.7372296094458
 21
110.0702623069936
 31
0.0
  0
ARC
  5
250
  8
VISIBLE
 10
221.7372296094458
 20
110.5702623069936
 30
0.0
 40
0.5000000000000071
 50
270.0
 51
0.0
  0
ARC
  5
251
  8
VISIBLE
 10
336.0372296094458
 20
124.5702623069936
 30
0.0
 40
0.5
 50
0.0
 51
90.0
  0
LINE
  5
252
  8
VISIBLE
 10
336.0372296094458
 20
125.0702623069936
 30
0.0
 11
330.0372296094458
 21
125.0702623069936
 31
0.0
  0
ARC
  5
253
  8
VISIBLE
 10
330.0372296094458
 20
124.5702623069936
 30
0.0
 40
0.5
 50
90.0
 51
180.0
  0
LINE
  5
254
  8
VISIBLE
 10
329.5372296094458
 20
110.5702623069936
 30
0.0
 11
329.5372296094458
 21
124.5702623069936
 31
0.0
  0
ARC
  5
255
  8
VISIBLE
 10
330.0372296094458
 20
110.5702623069936
 30
0.0
 40
0.5000000000000071
 50
180.0
 51
270.0
  0
LINE
  5
256
  8
VISIBLE
 10
336.0372296094458
 20
110.0702623069936
 30
0.0
 11
330.0372296094458
 21
110.0702623069936
 31
0.0
  0
ARC
  5
257
  8
VISIBLE
 10
336.0372296094458
 20
110.5702623069936
 30
0.0
 40
0.5000000000000071
 50
270.0
 51
0.0
  0
ARC
  5
258
  8
VISIBLE
 10
350.3497296094458
 20
109.5702623069936
 30
0.0
 40
0.5
 50
180.0
 51
270.0
  0
LINE
  5
259
  8
VISIBLE
 10
350.3497296094458
 20
109.0702623069936
 30
0.0
 11
363.3497296094458
 21
109.0702623069936
 31
0.0
  0
ARC
  5
25A
  8
VISIBLE
 10
363.3497296094458
 20
109.5702623069936
 30
0.0
 40
0.500000000000011
 50
270.0
 51
0.0
  0
LINE
  5
25B
  8
VISIBLE
 10
363.8497296094458
 20
122.5702623069936
 30
0.0
 11
363.8497296094458
 21
109.5702623069936
 31
0.0
  0
ARC
  5
25C
  8
VISIBLE
 10
363.3497296094458
 20
122.5702623069936
 30
0.0
 40
0.500000000000011
 50
0.0
 51
90.0
  0
LINE
  5
25D
  8
VISIBLE
 10
350.3497296094458
 20
123.0702623069936
 30
0.0
 11
363.3497296094458
 21
123.0702623069936
 31
0.0
  0
ARC
  5
25E
  8
VISIBLE
 10
350.3497296094458
 20
122.5702623069936
 30
0.0
 40
0.5
 50
90.0
 51
180.0
  0
ARC
  5
25F
  8
VISIBLE
 10
374.1622296094458
 20
109.5702623069936
 30
0.0
 40
0.5
 50
180.0
 51
270.0
  0
LINE
  5
260
  8
VISIBLE
 10
374.1622296094458
 20
109.0702623069936
 30
0.0
 11
387.1622296094458
 21
109.0702623069936
 31
0.0
  0
ARC
  5
261
  8
VISIBLE
 10
387.1622296094458
 20
109.5702623069936
 30
0.0
 40
0.500000000000011
 50
270.0
 51
0.0
  0
LINE
  5
262
  8
VISIBLE
 10
387.6622296094458
 20
122.5702623069936
 30
0.0
 11
387.6622296094458
 21
109.5702623069936
 31
0.0
  0
ARC
  5
263
  8
VISIBLE
 10
387.1622296094458
 20
122.5702623069936
 30
0.0
 40
0.500000000000011
 50
0.0
 51
90.0
  0
LINE
  5
264
  8
VISIBLE
 10
374.1622296094458
 20
123.0702623069936
 30
0.0
 11
387.1622296094458
 21
123.0702623069936
 31
0.0
  0
ARC
  5
265
  8
VISIBLE
 10
374.1622296094458
 20
122.5702623069936
 30
0.0
 40
0.5
 50
90.0
 51
180.0
  0
ARC
  5
266
  8
VISIBLE
 10
397.9747296094458
 20
109.5702623069936
 30
0.0
 40
0.49999999999999
 50
180.0
 51
270.0
  0
LINE
  5
267
  8
VISIBLE
 10
397.9747296094458
 20
109.0702623069936
 30
0.0
 11
410.9747296094458
 21
109.0702623069936
 31
0.0
  0
ARC
  5
268
  8
VISIBLE
 10
410.9747296094458
 20
109.5702623069936
 30
0.0
 40
0.5
 50
270.0
 51
0.0
  0
LINE
  5
269
  8
VISIBLE
 10
411.4747296094458
 20
122.5702623069936
 30
0.0
 11
411.4747296094458
 21
109.5702623069936
 31
0.0
  0
ARC
  5
26A
  8
VISIBLE
 10
410.9747296094458
 20
122.5702623069936
 30
0.0
 40
0.5
 50
0.0
 51
90.0
  0
LINE
  5
26B
  8
VISIBLE
 10
397.9747296094458
 20
123.0702623069936
 30
0.0
 11
410.9747296094458
 21
123.0702623069936
 31
0.0
  0
ARC
  5
26C
  8
VISIBLE
 10
397.9747296094458
 20
122.5702623069936
 30
0.0
 40
0.49999999999999
 50
90.0
 51
180.0
  0
LINE
  5
26D
  8
VISIBLE
 10
135.2622296094459
 20
106.5452623069936
 30
0.0
 11
416.5122296094459
 21
106.5452623069936
 31
0.0
  0
LINE
  5
26E
  8
VISIBLE
 10
133.0122296094459
 20
199.5452623069936
 30
0.0
 11
133.0122296094459
 21
108.7952623069936
 31
0.0
  0
LINE
  5
26F
  8
VISIBLE
 10
135.2622296094459
 20
201.7952623069936
 30
0.0
 11
416.5122296094459
 21
201.7952623069936
 31
0.0
  0
ARC
  5
270
  8
VISIBLE
 10
382.3929796094458
 20
145.6702623069936
 30
0.0
 40
0.5
 50
180.0
 51
270.0
  0
LINE
  5
271
  8
VISIBLE
 10
382.3929796094458
 20
145.1702623069936
 30
0.0
 11
388.3929796094459
 21
145.1702623069936
 31
0.0
  0
ARC
  5
272
  8
VISIBLE
 10
388.3929796094459
 20
145.6702623069936
 30
0.0
 40
0.5
 50
270.0
 51
0.0
  0
LINE
  5
273
  8
VISIBLE
 10
388.8929796094459
 20
146.6702623069936
 30
0.0
 11
388.8929796094459
 21
145.6702623069936
 31
0.0
  0
LINE
  5
274
  8
VISIBLE
 10
389.3929796094459
 20
147.1702623069936
 30
0.0
 11
405.2689796094459
 21
147.1702623069936
 31
0.0
  0
LINE
  5
275
  8
VISIBLE
 10
405.7689796094459
 20
146.6702623069936
 30
0.0
 11
405.7689796094459
 21
145.6702623069936
 31
0.0
  0
ARC
  5
276
  8
VISIBLE
 10
406.2689796094459
 20
145.6702623069936
 30
0.0
 40
0.5
 50
180.0
 51
270.0
  0
LINE
  5
277
  8
VISIBLE
 10
406.2689796094459
 20
145.1702623069936
 30
0.0
 11
412.2689796094459
 21
145.1702623069936
 31
0.0
  0
ARC
  5
278
  8
VISIBLE
 10
412.2689796094459
 20
145.6702623069936
 30
0.0
 40
0.5
 50
270.0
 51
0.0
  0
LINE
  5
279
  8
VISIBLE
 10
412.7689796094459
 20
160.6702623069936
 30
0.0
 11
412.7689796094459
 21
145.6702623069936
 31
0.0
  0
LINE
  5
27A
  8
VISIBLE
 10
382.3929796094458
 20
161.1702623069936
 30
0.0
 11
412.2689796094459
 21
161.1702623069936
 31
0.0
  0
LINE
  5
27B
  8
VISIBLE
 10
137.9184796094459
 20
160.6702623069936
 30
0.0
 11
137.9184796094459
 21
147.6702623069936
 31
0.0
  0
ARC
  5
27C
  8
VISIBLE
 10
138.4184796094459
 20
147.6702623069936
 30
0.0
 40
0.5
 50
180.0
 51
270.0
  0
LINE
  5
27D
  8
VISIBLE
 10
138.4184796094459
 20
147.1702623069936
 30
0.0
 11
156.1809796094458
 21
147.1702623069936
 31
0.0
  0
ARC
  5
27E
  8
VISIBLE
 10
156.1809796094458
 20
147.6702623069936
 30
0.0
 40
0.4999999999999891
 50
270.0
 51
0.0
  0
LINE
  5
27F
  8
VISIBLE
 10
156.6809796094458
 20
160.6702623069936
 30
0.0
 11
156.6809796094458
 21
147.6702623069936
 31
0.0
  0
ARC
  5
280
  8
VISIBLE
 10
156.1809796094458
 20
160.6702623069936
 30
0.0
 40
0.4999999999999891
 50
0.0
 51
90.0
  0
LINE
  5
281
  8
VISIBLE
 10
138.4184796094459
 20
161.1702623069936
 30
0.0
 11
156.1809796094458
 21
161.1702623069936
 31
0.0
  0
ARC
  5
282
  8
VISIBLE
 10
384.7742296094459
 20
183.7702623069936
 30
0.0
 40
0.5
 50
180.0
 51
270.0
  0
LINE
  5
283
  8
VISIBLE
 10
384.7742296094459
 20
183.2702623069936
 30
0.0
 11
390.7742296094459
 21
183.2702623069936
 31
0.0
  0
ARC
  5
284
  8
VISIBLE
 10
390.7742296094459
 20
183.7702623069936
 30
0.0
 40
0.500000000000013
 50
270.0
 51
0.0
  0
LINE
  5
285
  8
VISIBLE
 10
391.2742296094459
 20
184.7702623069936
 30
0.0
 11
391.2742296094459
 21
183.7702623069936
 31
0.0
  0
LINE
  5
286
  8
VISIBLE
 10
391.7742296094459
 20
185.2702623069936
 30
0.0
 11
407.6502296094459
 21
185.2702623069936
 31
0.0
  0
LINE
  5
287
  8
VISIBLE
 10
408.1502296094459
 20
184.7702623069936
 30
0.0
 11
408.1502296094459
 21
183.7702623069936
 31
0.0
  0
ARC
  5
288
  8
VISIBLE
 10
408.6502296094459
 20
183.7702623069936
 30
0.0
 40
0.5
 50
180.0
 51
270.0
  0
LINE
  5
289
  8
VISIBLE
 10
408.6502296094459
 20
183.2702623069936
 30
0.0
 11
414.6502296094459
 21
183.2702623069936
 31
0.0
  0
ARC
  5
28A
  8
VISIBLE
 10
414.6502296094459
 20
183.7702623069936
 30
0.0
 40
0.5
 50
270.0
 51
0.0
  0
LINE
  5
28B
  8
VISIBLE
 10
415.1502296094459
 20
198.7702623069936
 30
0.0
 11
415.1502296094459
 21
183.7702623069936
 31
0.0
  0
LINE
  5
28C
  8
VISIBLE
 10
384.7742296094459
 20
199.2702623069936
 30
0.0
 11
414.6502296094459
 21
199.2702623069936
 31
0.0
  0
ENDSEC
  0
EOF
